<?xml version="1.0" encoding="utf-8"?>
<!-- Generator: Adobe Illustrator 24.0.0, SVG Export Plug-In . SVG Version: 6.00 Build 0)  -->
<svg version="1.1" id="Layer_1" xmlns="http://www.w3.org/2000/svg" xmlns:xlink="http://www.w3.org/1999/xlink" x="0px" y="0px"
	 viewBox="0 0 96 96" style="enable-background:new 0 0 96 96;" xml:space="preserve">
<style type="text/css">
	.st0{opacity:0.25;}
	.st1{fill:#FFFFFF;}
</style>
<title>islamic-ornament</title>
<g class="st0">
	<path class="st1" d="M54.9,20.1L48,13.2l-6.9,6.9L48,27L54.9,20.1z M48,15.6l4.5,4.5L48,24.6l-4.5-4.5L48,15.6z"/>
	<path class="st1" d="M72.7,23.4h-9.8v9.8h9.8V23.4z M71,31.4h-6.4v-6.4H71V31.4z"/>
	<path class="st1" d="M76,41.1L69,48l7,6.9l6.9-6.9L76,41.1z M71.4,48l4.6-4.5l4.5,4.5L76,52.5L71.4,48z"/>
	<path class="st1" d="M77,36V19H60L48,7L36,19H19v17L7,48l12,12v17h17l12,12l12-12h17V60l12-12L77,36z M64.1,46.8l-3-2.7h-3.9
		l2.7-2.7l0.3-3.9h13.3L64.1,46.8z M46,55.4l2.1-2.1l2,2v5.2l-2,2.3l-2-2.3L46,55.4z M50.1,40.5l-2,2L46,40.4v-4.9l2-2.3l2,2.3
		L50.1,40.5z M48.9,49.9h-1.7L46,48.7V47l1.2-1.2h1.7l1.2,1.2v1.7L48.9,49.9z M51.9,46.3v-0.4H53l-0.8,0.8L51.9,46.3z M51.9,44.1
		v-2.9l3.5-3.5l3.1-0.2l-0.2,3.1l-3.5,3.5L51.9,44.1z M50.1,44.1h-0.4l-0.4-0.4l0.8-0.8V44.1z M46.8,43.7l-0.3,0.3H46V43L46.8,43.7z
		 M44.2,44.1h-2.9l-3.6-3.6l-0.2-3.1l3.1,0.2l3.6,3.6L44.2,44.1z M44.2,45.8v0.5l-0.3,0.3l-0.8-0.8H44.2z M42.7,47.8l-2,2h-5.2
		l-2.3-2l2.3-2h5.1L42.7,47.8z M43.9,49.1l0.3,0.3v0.5h-1.1L43.9,49.1z M44.2,51.7v2.8l-3.6,3.6l-3.1,0.2l0.2-3.1l3.6-3.6H44.2z
		 M46,51.7h0.5l0.3,0.3L46,52.8L46,51.7z M49.3,52l0.3-0.3h0.5v1.1L49.3,52z M51.9,51.7h2.9l3.5,3.5l0.2,3.1l-3.1-0.2l-3.5-3.5
		L51.9,51.7z M51.9,49.9v-0.4l0.3-0.3l0.8,0.8L51.9,49.9z M53.5,47.9l2-2h4.9l2.3,2l-2.3,2h-4.9L53.5,47.9z M58.6,35.7l-4,0.3
		l-2.7,2.7v-3.8l-2.6-3l9.3-9.3V35.7z M44.2,34.9v3.8l-2.8-2.8l-3.9-0.3v-13l9.3,9.3L44.2,34.9z M36,41.2l2.8,2.8h-4l-3,2.6
		l-9.2-9.3h13.2L36,41.2z M34.8,51.7h4L36,54.6l-0.3,4H22.5l9.4-9.4L34.8,51.7z M41.4,60l2.8-2.8v4l2.6,2.9l-9.3,9.3V60.2L41.4,60z
		 M51.8,61.1v-4.1l2.8,2.8l3.9,0.3v13.3l-9.3-9.3L51.8,61.1z M60.3,58.5L60,54.4l-2.7-2.7h3.8l2.9-2.6l9.4,9.4L60.3,58.5z M65.5,48
		L76,37.5L86.4,48L76,58.5L65.5,48z M75.2,35.7H60.3V20.8h14.8V35.7z M48,9.6l10.5,10.5L48,30.5l0,0L37.5,20.1L48,9.6z M20.9,20.8
		h14.8v14.6l0,0v0.2H20.9V20.8z M20.1,37.5l10.4,10.4l0,0l0.1,0.1L20.1,58.5L9.6,48L20.1,37.5z M20.9,60.4h14.8v14.8H20.9V60.4z
		 M48,86.4L37.5,76L48,65.5l10.5,10.5L48,86.4z M75.2,75.2H60.3V60.3h14.8V75.2z"/>
	<path class="st1" d="M72.7,62.9h-9.8v9.8h9.8V62.9z M71,70.9h-6.4v-6.4H71V70.9z"/>
	<path class="st1" d="M41.1,75.9l6.9,6.9l6.9-6.9L48,69L41.1,75.9z M48,80.4l-4.5-4.5l4.5-4.5l4.5,4.5L48,80.4z"/>
	<path class="st1" d="M23.4,72.7h9.8v-9.8h-9.8V72.7z M25.1,64.6h6.4v6.4h-6.4V64.6z"/>
	<path class="st1" d="M27,48l-6.9-6.9L13.2,48l6.9,6.9L27,48z M20.1,43.5l4.5,4.5l-4.5,4.5L15.6,48L20.1,43.5z"/>
	<path class="st1" d="M23.4,33.1h9.8v-9.8h-9.8V33.1z M25.1,25.1h6.4v6.4h-6.4V25.1z"/>
	<path class="st1" d="M82,33.9V14.1H62.1L48,0L34,14.1H14.1v19.9L0,48l14.1,14.1v19.9h19.9L48,96l14.1-14.1h19.9V62.1L96,48L82,33.9
		z M79.3,60.9v18.3H61L48,92.1L35.1,79.2H16.8V60.9L3.9,48l12.9-12.9V16.8h18.3L48,3.9l13,12.9h18.2v18.3L92.2,48L79.3,60.9z"/>
</g>
</svg>
