<?xml version="1.0" encoding="utf-8"?>
<!-- Generator: Adobe Illustrator 25.2.1, SVG Export Plug-In . SVG Version: 6.00 Build 0)  -->
<svg version="1.1" id="Layer_1" xmlns="http://www.w3.org/2000/svg" xmlns:xlink="http://www.w3.org/1999/xlink" x="0px" y="0px"
	 viewBox="0 0 691.1 256" style="enable-background:new 0 0 691.1 256;" xml:space="preserve">
<style type="text/css">
	.st0{fill:#FFFFFF;}
</style>
<g>
	<g>
		<path class="st0" d="M491.3,75.7c0.1,0,0.1,0,0.2,0c0.3,0,0.5-0.2,0.7-0.4c0.2-0.2,0.4-0.3,0.6-0.4c0-0.3,0.1-0.6,0.2-0.9
			c-0.2,0.2-0.5,0.4-0.7,0.6C491.8,74.9,491.4,75.2,491.3,75.7C491.3,75.7,491.3,75.7,491.3,75.7z"/>
	</g>
	<g>
		<path class="st0" d="M415.8,105c0,0,0.1,0,0.1,0C416,105,415.9,105,415.8,105c-0.1-0.1-0.2-0.1-0.3-0.2
			C415.6,105,415.7,105,415.8,105z"/>
	</g>
	<g>
		<path class="st0" d="M425.2,101.1c-0.1,0.1-0.1,0.2-0.2,0.3c0,0,0.1-0.1,0.1-0.1C425.1,101.3,425.2,101.2,425.2,101.1L425.2,101.1
			z"/>
	</g>
	<g>
		<path class="st0" d="M223,115.7C223,115.6,223,115.6,223,115.7c-0.1-0.1-0.2-0.1-0.2-0.2c0,0,0,0,0,0
			C222.9,115.6,222.9,115.6,223,115.7z"/>
	</g>
	<g>
		<path class="st0" d="M493.5,73.3c0,0-0.1,0.1-0.2,0.1c0,0.1,0,0.1,0,0.2C493.4,73.5,493.4,73.4,493.5,73.3z"/>
	</g>
	<g>
		<path class="st0" d="M564,138.7c0,0.1-0.1,0.1-0.1,0.2C564,138.8,564.1,138.8,564,138.7C564.1,138.7,564.1,138.7,564,138.7z"/>
	</g>
	<g>
		<path class="st0" d="M174.7,181.2c0-0.1-0.1-0.1-0.2-0.2C174.6,181.1,174.6,181.2,174.7,181.2
			C174.7,181.2,174.7,181.2,174.7,181.2z"/>
	</g>
	<g>
		<path class="st0" d="M318.4,147.1L318.4,147.1c0,0.1,0,0.1,0.1,0.4c0,0,0,0,0.1-0.1l0.1-0.2c0,0,0,0,0,0
			C318.6,147.1,318.5,147.1,318.4,147.1L318.4,147.1C318.4,147.1,318.4,147.1,318.4,147.1z"/>
	</g>
	<g>
		<path class="st0" d="M3.8,2.9c0.8-0.6,0.5-1.2,0.3-1.8c-0.1-0.3-0.3-0.7-0.3-1c-0.2,0-0.5,0-0.8,0c-0.3,0-0.5,0-0.8,0
			c-0.3,0-0.6,0-0.9-0.1C1.2,0,1,0,0.8,0C0.5,0,0.3,0.1,0.2,0.2C0.1,0.3,0.1,0.3,0.1,0.4c0,0,0,0,0,0.1C0,0.7,0,1,0,1.3
			c0,0.1,0,0.3,0,0.5c0.7,0.8,1.5,1.5,2.5,1.5C3,3.3,3.4,3.2,3.8,2.9z"/>
	</g>
	<g>
		<path class="st0" d="M691.1,144.7l0-15.4c-0.1-0.1-0.2-0.1-0.3-0.1c-0.1,0-0.2,0-0.2,0.1c-0.4-0.2-0.9-0.2-1.3-0.3
			c-0.7-0.1-1.4-0.1-2-0.7l-0.9-1.1c-0.6-1.4-1.6-1.6-2.6-1.6c-0.4,0-0.7,0-1.2,0.1c-0.2-0.1-0.4-0.1-0.7-0.1c-0.2,0-0.4,0-0.6,0
			c-0.2,0-0.4,0-0.6,0c-0.4,0-1-0.1-1.4-0.5c-0.5-0.8-1.2-1.2-1.9-1.2c-0.7,0-1.5,0.3-2.2,0.7l-2.1,0l-2-0.6c-1.8-1.4-3.9-2.1-6-2.8
			c-1.3-0.4-2.6-0.8-3.8-1.4c-1.3-0.5-2.5-1.3-3.6-2.1c-1.9-1.3-3.8-2.6-6.3-2.8c-2.6-0.2-4.4-0.8-5.3-1.8c-0.9-1-1.8-1.4-2.9-1.4
			c-0.8,0-1.5,0.2-2.3,0.4l-0.5,0.1c-0.9,0.2-1.7,0.7-2.5,1.1c-0.4,0.2-0.7,0.4-1.1,0.6c-0.4,0.2-0.8,0.3-1.1,0.5
			c-0.9,0.4-1.8,0.8-2.7,1.1c-0.1,0-0.3,0.1-0.4,0.1c-0.6,0.2-1.2,0.4-1.4,1.1c0,0,0,0,0,0c0,0.1-0.1,0.2-0.1,0.4l0,1.4
			c-0.2,0.3,0.1,0.6,0.3,0.9c0.2,0.3,0.4,0.5,0.4,0.8c-0.1,0.2-0.4,0.4-0.9,0.5c0,0.1-0.1,0.2-0.1,0.3l-0.6,0.3l-0.3,0.1
			c-0.2-0.1-0.4-0.1-0.6-0.1c-0.4,0-0.8,0.2-1.1,0.4c-0.2,0.2-0.5,0.2-0.7,0.2c-0.1,0-0.3,0-0.4,0c-0.1,0-0.3,0-0.4,0
			c-0.3,0-0.7,0.1-1,0.5c-0.1,0-0.2,0.1-0.3,0.1c-0.2,0.1-0.4,0.2-0.6,0.2c0,0,0,0,0,0c-0.5,0-1-0.1-1.4-0.1c-1.8,0-3.7,0.4-4,3.6
			c0,0.1,0,0.3-0.1,0.4c0,0,0,0,0,0.1c-0.4,1-1.5,1.7-2,2c-2.4,0.5-3.8,1.9-4,4.2c0,0.3-0.2,0.6-0.4,0.8c-0.1,0.2-0.2,0.3-0.3,0.5
			c-0.2,0.2-0.3,0.3-0.5,0.5c-0.6,0.5-1.1,1-1.2,1.9c-0.2,0.1-0.4,0.2-0.7,0.2c-0.5,0.2-1.1,0.3-1.4,0.9l-1.1,1.5l-0.5,0.1
			c-1.3,0.3-2.5,0.5-3.8,0.5c-2,0-3.5-0.7-4.7-2.2l-0.4-0.9c0-0.1,0-0.2-0.1-0.2c0.1-0.2,0.1-0.3,0-0.4c0.1-0.3,0.3-0.6,0.5-0.9
			c0.4-0.7,0.9-1.4,0-2.2c-0.3-0.3-0.5-0.4-0.8-0.4c-0.4,0-0.7,0.3-1,0.5c-0.1,0.1-0.2,0.2-0.3,0.3c0,0,0,0,0,0L596,132
			c0-0.4,0-0.9,0-1.4c0.1-1.3,0.2-2.7-1.6-3.4c0-0.1-0.1-0.3-0.1-0.4c-0.3-0.1-0.6-0.1-0.8-0.1c-0.1,0-0.2,0-0.3,0.1
			c-0.1,0-0.2,0-0.2,0.1c-0.2,0.1-0.4,0.2-0.5,0.3c0,0-0.1,0.1-0.1,0.1c-0.4,0.4-0.6,1-0.8,1.8l-1.1-1.4l-1-1.3
			c0.1-0.2,0.1-0.5,0.1-0.7c-1.3-1.7-1.3-3.8-1.2-5.7c0-0.4,0-0.9,0-1.3c-0.3-1.4,0.2-2.6,0.6-3.7c0.3-0.7,0.5-1.4,0.6-2.1l0-2
			c0.2-1.5-0.5-2.8-2-3.8l-0.8-1c-0.1-0.1-0.1-0.3-0.2-0.4c-0.2-0.4-0.4-0.8-0.2-1.3c0.4-0.8,0.6-1.4,0.4-1.9
			c-0.2-0.7-0.9-1.1-1.7-1.5c-0.2-0.1-0.5-0.2-0.7-0.4c-0.6-0.4-1.3-0.5-2.2-0.5c-0.5,0-1,0.1-1.5,0.1c-0.5,0.1-1,0.1-1.4,0.1
			c-0.5,0-1-0.1-1.4-0.2c-0.6-0.5-1.1-0.7-1.6-0.7c-0.2,0-0.3,0-0.4,0.1c0-0.1,0-0.2-0.2-0.3c-0.7,0-1.2-0.5-1.6-0.9
			c-0.3-0.3-0.6-0.6-1-0.8l-0.2,0.1l-0.2,0.1c-0.1-0.1-0.1-0.2-0.2-0.3c-0.3-0.2-0.7-0.3-1.1-0.3c0,0,0,0,0,0c-0.2,0-0.3,0-0.4,0.1
			c-1.5-1-3.2-1.7-5.3-2.2l-0.7-0.1c-0.5-0.1-1.1-0.1-1.6-0.1c-0.5,0-1,0.1-1.4,0.2l-3.2,0l-1.7,0.9l-1.4,0.7l-0.4,0.6
			c-0.1,0-0.2,0-0.2,0.1c-0.7,0.1-1.3,0.5-1.6,1.3c-0.4,0.5-0.8,0.7-1.4,0.7c0,0,0,0,0,0c-0.1,0-0.2,0-0.3,0.1c0,0,0,0,0,0
			c0,0,0,0-0.1,0.1c-0.5-0.1-0.9-0.2-1.2-0.2c-0.6,0-1.1,0.2-1.5,0.7c-0.1,0.1-0.2,0.3-0.3,0.4c0,0,0,0.1,0,0.1
			c-0.1-0.1-0.1-0.3-0.2-0.5c-0.3-0.1-0.7-0.2-1-0.2c-0.7,0-1.5,0.2-2.2,0.5l-0.6,0.2c-1.4,1.2-2.1,2.5-2.2,4c0,0.3,0,0.7,0,1
			c-0.2-0.3-0.3-0.6-0.4-0.9c-0.2-0.7-0.5-1.4-1.4-1.6c-0.1,0-0.2,0-0.4,0c-0.2,0-0.5-0.1-0.6-0.1c-0.2-0.4-0.2-0.9-0.1-1.4
			c0-0.2,0-0.4,0-0.7l-0.5-0.2c-0.3-0.2-0.5-0.2-0.7-0.2c-0.3,0-0.5,0.1-0.7,0.4c-0.1,0-0.2,0-0.2,0c-0.8,0.1-1.6,0.3-2.5,0.6
			c-0.2,0.2-0.5,0.3-0.8,0.4l-1-0.1l-1-0.1l-0.3,0.3c-0.1,0-0.3,0-0.4,0c-0.3,0.1-0.4,0.3-0.5,0.6c0,0.1-0.1,0.1-0.1,0.2
			c0,0,0,0,0,0.1c0,0,0,0,0,0c-0.5,0.6-0.4,1.3-0.2,2c0,0,0,0,0,0c0,0,0,0,0,0c0,0,0,0,0,0c0.4-0.1,0.7-0.2,1-0.3
			c0.5-0.2,1-0.4,1.5-0.4c0.2,0,0.4,0,0.6,0.1c0.2,0.4,0.3,0.9,0.3,1.4c0.1,0.7,0.1,1.4,0.8,1.9c0.8,1.6,2,2.8,3.7,3.7
			c0.2,0.5,0.6,0.6,0.9,0.6c0.4,0.4,0.9,0.5,1.4,0.6c0.3,0.1,0.6,0.1,0.9,0.3l0.2,0.2l0.2,0c0.4,0.3,0.8,0.5,1.2,0.5
			c0.4,0,0.8-0.1,1.2-0.4c0.1,0,0.2,0,0.3,0c0.4,0,0.9,0,1.2-0.5l6.3,2.4c0.8,0.7,0.8,1.5,0.7,2.4c-0.1,0.7-0.1,1.4,0.3,2
			c0,1.9,1.2,2.8,2.7,3.6c0.3,0.2,0.6,0.3,1,0.4c0.7,0.2,1.5,0.4,1.6,1.4c0.4,0.5,0.8,0.8,1.3,0.8c0.3,0,0.6-0.1,0.9-0.5
			c0.1-0.4,0.3-0.7,0.7-0.7c0.1,0,0.1,0,0.2,0c0.3,0.1,0.7,0.1,1.1,0.2c0.1,0,0.2,0,0.3,0.1c1,0.2,2,0.3,3.2,0.3
			c1.5,0,3-0.1,4.5-0.3l1.2-0.1c1,0.2,2.2,0.3,3.4,0.3c1,0,1.8-0.1,2.7-0.3c0.3-0.1,0.5-0.3,0.7-0.5c0.3,0,0.7-0.1,1-0.2
			c0.3-0.1,0.7-0.2,1-0.2c0.3,0,0.6,0.1,0.7,0.3c0.1,0.4,0,0.7-0.2,1c-0.9,1.3-1.6,2-2.4,2c-0.6,0-1.3-0.3-2.3-0.9l-0.3-0.2
			c-0.6-0.4-1.3-0.8-2-0.8c-0.4,0-0.9,0.1-1.3,0.4c-1.5,0.2-2.8,1-3.7,2.2c-0.7,0.2-1.1,0.7-1.2,1.5c-0.2,0-0.3,0-0.5,0.1
			c-0.6,0.1-0.8,0.6-0.9,1c-0.2,0.5-0.4,1-1.1,1c-1.2-1.1-4.2-1.6-6.6-1.6c-2.4,0-4.3,0.4-5.1,1.2c-0.3,0.3-0.4,0.5-0.2,1
			c0.7,1.6,1.5,3.2,3.5,3.2c0.2,0,0.4,0,0.6,0c0.3,0,0.6-0.1,0.9-0.1c1.9,0,3.3,0.8,4.4,2.5c0.3,0.4,0.5,0.9,0.7,1.4c0,0,0,0,0,0
			c0.4,1.4,1.4,2.4,3.2,3l0.2,1l-1.1,2.1c-0.6,1.4-0.5,3.1,0,4.4c0.4,1,1.2,1.8,2.1,2.1c0.2,0.3,0.5,0.5,0.7,0.6c0,0,0,0,0,0
			c0.1,0,0.2,0.1,0.3,0.1c0.4,0,0.9-0.3,1.3-0.6l0.3-0.2l1.5,0.1c0.4,0.5,0.9,0.6,1.4,0.7c0.3,0.1,0.6,0.1,0.8,0.2
			c0.4,0.7,1.2,1.1,1.9,1.5c0.4,0.2,0.7,0.4,1,0.6l0.2,0.2c0.3,0.3,0.7,0.6,1.1,0.6c0.3,0,0.5-0.2,0.7-0.5c0.5-0.9-0.6-1.7-1-1.9
			c-0.3-0.2-0.7-0.4-1-0.6c-0.9-0.5-1.9-0.9-2.3-2l1.2-1.4c1.3-0.5,1.2-1.3,1-2.2c-0.1-0.4-0.1-0.9,0-1.2c0.7-0.5,1.4-0.7,1.9-0.7
			c0.6,0,1.1,0.2,1.7,0.7c0.4,0.6,0.9,0.6,1.5,0.7c0.3,0,0.6,0.1,0.8,0.2l0.8,0.5c1.9,1.1,4,2.3,5.2,4.4c0.1,0,0.2,0,0.2,0
			c0.3,0,0.5-0.2,0.7-0.5c0.2-0.1,0.3-0.3,0.4-0.6c0.2-0.3,0.3-0.6,0.6-0.6c0.2,0,0.4,0.1,0.6,0.4c1.4,1.4,3,2.6,5.2,4l1.1,0.6
			l0.4-0.1c0,0.1,0.1,0.1,0.1,0.2c0.1,0.1,0.3,0.1,0.4,0.1c0.4,1.1,1.4,1.4,2.3,1.7l0.5,0.2l1.6,0.4c1,0.2,1.9,0.3,2.9,0.4
			c1.3,0.2,2.7,0.3,4,0.6c6.2,1.1,11.8,3.7,16.4,6l2.7,0.9c0.9,0.3,1.8,0.6,2.7,0.9c1.3,0.4,2.6,0.8,3.9,1.4c0,0,0.1,0,0.1,0
			c0.4,0.2,0.8,0.4,1.2,0.6c0.1,0.4,0.4,0.5,0.7,0.5c0.2,0,0.3,0,0.4,0.1l0.3,0.1l0.4,0.2c0,0,0,0.2,0,0.2c0.7,0.7,1.6,1.4,2.5,2
			c1.7,1.2,3.6,2.4,4.1,4.8l0.1,0.5l0.1,0.5c0.2,0.1,0.4,0.2,0.6,0.3c1.1,0.6,2.1,1.2,2.4,2.6l0.2,0.6c0.8,2.9,1.5,5.9,4.2,8
			c0.8,0.6,1.1,1.7,0.9,2.8c-0.2,0.4-0.3,0.7-0.5,1.1c-0.1,0.4-0.3,0.9-0.5,1.3c-0.1,0.1-0.1,0.2-0.2,0.4c0,0,0,0,0,0
			c-0.1,0.2-0.2,0.4-0.2,0.6c0,0.1,0,0.2,0,0.3c0,0.1,0,0.1,0,0.2c0.1,0.3,0.3,0.4,0.6,0.6c0,0,0,0,0,0c0.1,0.1,0.2,0.1,0.3,0.2l0,0
			c0,0,0,0,0,0c0,0,0,0,0,0c0,0,0,0,0,0c0,0,0,0,0,0l-0.1,0.1l0.1-0.1c0,0.2,0.2,0.3,0.3,0.5c0.2,0.3,0.5,0.5,0.1,1
			c-0.6,0.7-0.4,1.4-0.1,2.1c0,0.1,0.1,0.2,0.1,0.2c-0.6,0-1.1,0.2-1.6,0.5c-0.6,0.8-1.5,0.9-2.4,1c-0.9,0.1-1.9,0.2-2.5,1.1
			c-3.6,2-5.2,5.5-6.7,8.9c-0.3,0.6-0.5,1.2-0.8,1.7c-0.1,0-0.1,0.1-0.2,0.1c0,0,0,0,0,0c-0.1,0.1-0.1,0.2-0.1,0.3c0,0,0,0,0,0
			c0,0.1,0,0.1,0,0.2c-0.1,0.3-0.3,0.5-0.4,0.7c-0.5,0.9-1,1.7-0.3,2.8c0.2,0.3,0.5,0.5,0.7,0.6c0,0,0,0,0.1,0
			c0.1,0,0.1,0.1,0.2,0.1c0.3,0,0.7-0.2,1-0.3c0.3-0.1,0.7-0.3,1-0.3l1,0.1c0.5-0.1,1-0.2,1.5-0.2c0.9,0,1.7,0.2,2.5,0.7
			c1,0.5,1.9,0.8,2.7,0.8c0.5,0,1-0.1,1.4-0.4c0.6-0.3,1.2-0.5,1.9-0.5c0.8,0,1.6,0.2,2.4,0.5l0.2,0.1c0.3-0.1,0.6-0.2,0.8-0.3
			c0.2,0,0.4,0.1,0.6,0.1c0.5,0,0.9-0.2,1.2-0.5l0,0c0,0,0,0,0,0l0.2,0c0.6-0.1,0.9-0.5,1.2-0.9c1.3-1.8,1.8-2.5,2.7-2.5
			c0.6,0,1.5,0.4,2.9,0.9c1.1,0,2.3-0.1,3.3-1c0.1-0.1,0.1-0.1,0.2-0.2c0.2,0.1,0.5,0.1,0.7,0.1c0.3,0,0.7-0.1,1-0.1
			c0.3-0.1,0.7-0.1,1-0.1c0.1,0,0.2,0,0.3,0l0.2,0c0.4,0,0.8,0,1.1,0.1c0.1,0,0.2,0,0.3,0c0.2,0,0.4,0.1,0.6,0.3
			c0.1,0.1,0.3,0.1,0.4,0.1c0,0,0,0,0,0c0.2,0.7,0.7,1,1.2,1.3c0.4,0.2,0.7,0.5,1,0.8c0.2,0.8,0.9,1.1,1.5,1.4l0.2,0.1l0.7,0.4
			l0.3,0.1c0.1,0.6,0.6,0.8,1.2,1c0.9,0.8,1.5,1.7,2.2,2.7c0.8,1.2,1.7,2.5,3,3.3c0.5,0.3,1,0.9,1.3,1.4c0.6,0.7,1.2,1.5,2.1,1.6
			c0,0,0,0,0.1,0c0.1,0,0.2,0.1,0.4,0.1c0.1,0,0.3,0,0.4,0l0.6,0v-34.6c0,0-0.2,0-0.2,0c0,0-0.2,0-0.2,0c-1-2.4-0.6-4.7,0.3-7.4
			V144.7z M564,138.7C564.1,138.7,564.1,138.7,564,138.7c0,0,0,0.1-0.1,0.2C564,138.8,564,138.8,564,138.7z"/>
	</g>
	<g>
		<path class="st0" d="M151.5,177.7l0.2-0.2c0.3-0.2,0.6-0.4,0.6-0.7c0-0.2-0.1-0.4-0.3-0.7c-0.6-0.4-0.5-0.9-0.4-1.5
			c0-0.2,0.1-0.5,0.1-0.7c0.2-0.3,0.5-0.4,0.7-0.4c0.3,0,0.5,0.1,0.8,0.2c0.2,0.1,0.3,0.1,0.5,0.3c0.1,0.1,0.2,0.3,0.4,0.3
			c0,0,0,0,0.1,0c0,0,0.1,0,0.1,0l0.5,1.1l2.2,2.4l1,1.1c0.2,0,0.3,0,0.5,0c0.9,0,1.6-0.3,2.1-0.8c0.7-0.8,1.1-2.1,1.1-3.9l0.1-5.2
			l0.4-0.3l0-1l0-0.7c0-0.1,0-0.2,0-0.2c0,0,0,0,0-0.1l0-0.1l0.3-0.3c0.1-0.2,0.3-0.3,0.4-0.5c0.1-0.3,0.1-0.5,0.2-0.8
			c0-0.1,0.1-0.2,0.1-0.4c0.1-0.5,0.2-1,0.3-1.5c0-0.2,0-0.5,0.1-0.7c0-0.4,0-0.8,0-1.2c0-0.2,0-0.4-0.1-0.6
			c-0.1-0.4-0.2-0.8-0.3-1.3c0-0.2-0.1-0.3-0.2-0.5c-0.1-0.2-0.1-0.4-0.2-0.7l-0.1-1.3c-0.5-2.8-0.1-5.6,1.1-8.8
			c-2.4-4-2.4-5.1,0.2-8.1c0.2-0.3,0.4-0.6,0.7-0.8l0.3-0.4c0.2,0,0.3-0.1,0.5-0.2c0.4-0.7,0.7-1.4-0.1-2.1
			c-0.6-0.2-0.5-0.6-0.5-1.1c-0.3-0.2-0.3-0.5-0.4-0.8c-0.1-0.3-0.2-0.6-0.5-0.8c0,0-0.1-0.1-0.1-0.1c0,0,0,0,0,0
			c0.1,0,0.2,0.1,0.3,0.1c0.7,0.3,1.5,0.5,2.2,0.7c1,0.2,1.9,0.4,2.8,1c0.9,1.5,2.1,2.2,3.6,2.2c0.7,0,1.4-0.1,2.3-0.5l0.1-0.1
			l0.2,0c2.7-0.9,2.9-1.3,2.2-4.2c-0.4-0.2-0.8-0.3-1.3-0.3c-0.6,0-1.3,0.2-1.9,0.4l-0.4,0.2c-0.4-1.1,0.1-1.8,0.7-2.5
			c0.5-0.6,0.9-1.2,0.7-1.9c0.1-0.5-0.1-0.8-0.5-1c-0.6-1-1.5-1.2-2.4-1.2c-0.2,0-1,0-1.1,0c-0.2,0-0.4,0-0.7,0
			c-0.2,0-0.4,0-0.6,0.1c-0.2,0-0.4,0.1-0.6,0.1c-0.4,0-0.9-0.1-0.9-1.2c0-0.1,0-0.1-0.1-0.2c0-0.1,0-0.2-0.1-0.2
			c0-0.1-0.1-0.2-0.2-0.3c0,0-0.1-0.1-0.2-0.1c-0.1,0-0.1-0.1-0.2-0.1c-0.9-0.5-1.3-1.4-1.3-2.7c0-2.6-0.5-4.8-1.7-7
			c-1.1-2-1.9-3.1-3.5-3.1c-0.7,0-1.4,0.2-2.5,0.6c-0.1,0-0.2,0-0.3,0c-0.4,0-0.9-0.2-1.3-0.3c-0.4-0.2-0.9-0.3-1.3-0.3
			c-0.6,0-1.1,0.3-1.5,1c-1,0.5-1.5,1.5-1.5,2.9c0,1.3-0.6,1.9-2.1,2c-0.4,0-0.7,0.2-0.9,0.5c-0.2,0.6-0.6,1-1.1,1.3
			c-0.4,0.3-0.5,0.8-0.4,1.4c0.1,0.3,0.4,0.7,0.7,0.9c0.5,0.4,1.1,0.6,1.8,0.8c0.5,0.1,0.9,0.2,1.4,0.3l0.5,0.1
			c0.6,0.1,1.3,0.2,2.1,0.2c0.3,0,0.7,0,1,0c0.1,0,0.2,0,0.3,0c1.6,0,2.5,0.7,3.2,2.6c0.4,1,0.6,2,0.8,3c0.1,0.4,0.2,0.7,0.3,1.1
			c0,0.1,0,0.2,0.1,0.3c-0.1-0.2-0.3-0.4-0.4-0.5c-0.5-0.6-0.9-1.2-1.1-1.9c-0.7-2.8-0.8-3.4-2.9-3.4c-0.5,0-1,0-1.8,0.1l-0.3,0.1
			c-0.3,0.1-0.7,0.1-0.9,0.4c-0.5-0.1-1-0.1-1.6-0.2c-4.4-0.3-4.4-0.3-4.7-4.7l-2-0.2c-1.8-0.6-2.2-2.1-2.7-3.5
			c-0.3-0.8-0.5-1.6-1.1-2.3c-0.9-1-1-2.3-1.1-3.5c0-0.6-0.1-1.1-0.2-1.7c0,0,0,0,0-0.1c-0.1-0.2-0.1-0.5-0.2-0.7
			c0.1-0.6-0.1-1.1-0.3-1.6c-0.1-0.3-0.2-0.6-0.3-0.9c-0.3-0.8-0.8-1.2-1.8-1.3c-0.4,0-0.8,0-1.2-0.1c-0.8,0-1.6,0-2.4-0.3
			c-0.6,0-1.3,0-2.1,0.2c-0.3,0.1-0.6,0.1-0.9,0.1c-2.4,0-5.3-2.2-6-4.5l1.7-2c0.4-0.3,0.8-0.5,1.3-0.7c0.8-0.4,1.7-0.9,2-1.6
			c0,0,0,0,0,0c0.1-0.2,0.2-0.3,0.2-0.5c0.1-1.1-0.8-1.4-1.8-1.7c-0.4-0.1-0.9-0.3-1.2-0.5c-0.3-0.2-0.4-0.3-0.4-0.5
			c0-0.2,0.2-0.3,0.4-0.4c0.2-0.1,0.5-0.3,0.5-0.5l0.8-0.2l1-0.2c0.2,0,0.4,0,0.5,0c0.5,0,1,0,1.2-0.4c0.2-0.3,0.1-0.8-0.3-1.5
			l-0.6-0.9c0-0.3,0-0.5,0-0.8c0-0.7,0.1-1.3-0.5-2l-0.1-0.8c-0.4-2.1-2.1-2.4-3.8-2.8l-1.3-0.3l-1.1-0.3c0.1-0.4,0.3-0.5,0.6-0.5
			c0.1,0,0.3,0,0.4,0.1l0.2,0c0.1,0,0.2,0,0.4,0c0.4,0,0.7-0.1,0.9-0.3c0.1,0,0.1-0.1,0.1-0.1c0.1-0.1,0.2-0.1,0.2-0.2
			c0-0.1,0-0.2,0.1-0.2c0,0,0-0.1,0-0.1c0-0.2,0.1-0.4,0-0.5c0,0,0-0.1,0-0.1c0-0.1,0-0.2-0.1-0.3c-0.4-0.7-0.5-1.5-0.7-2.3
			c-0.2-0.7-0.3-1.5-0.6-2.2l-0.1-0.2c-0.3-0.6-0.6-1.3-1.3-1.3c-0.2,0-0.4,0-0.6,0.1c-0.8,0.4-1.5,0.9-1,2.3l0.1,0.4
			c0.3,0.8,0.6,1.6,0.2,2.4c-0.1,0.1-0.1,0.2-0.2,0.3c0,0,0,0,0,0.1c-0.1,0.1-0.3,0.3-0.4,0.4c0-0.1,0-0.3-0.1-0.4
			c-0.1,0-0.1,0-0.2,0c-0.1,0-0.2,0-0.2,0.1c0,0,0,0,0,0c-0.2,0-0.5,0.1-0.7,0.3c0,0-0.1,0-0.1,0.1c-0.1,0.1-0.2,0.1-0.3,0.2
			c-0.1,0-0.1,0.1-0.2,0.2c0,0.1,0,0.2,0,0.2c-0.3,0.2-0.5,0.4-0.7,0.5c-0.1,0-0.2,0.1-0.3,0.1c0.2-0.2,0.3-0.5,0-0.9
			c0.3-0.2,0.5-0.5,0.6-0.8c0-0.1,0.1-0.2,0.1-0.2c0,0,0-0.1,0-0.1c0.2,0.1,0.3,0.1,0.5,0.1c0.4,0,0.7-0.3,0.9-1
			c-0.3-2.4-2.1-3.4-3.7-4.1c-0.2-0.1-0.3-0.1-0.5-0.1l-0.6-1c-0.5-0.9-1.2-1.1-1.7-1.1c-0.3,0-0.5,0-0.8,0.1
			c-0.3,0.1-0.6,0.2-0.9,0.2c-0.9,0-1.2-0.7-1.5-1.9c0-0.2-0.1-0.4-0.1-0.6c0-0.5-0.1-1-0.4-1.4c-0.6-0.9-1.3-1.5-2-1.9c0,0,0,0,0,0
			c-0.5-0.2-1-0.4-1.5-0.4c-0.1,0-0.3,0-0.4,0.1c0,0,0,0-0.1,0c-0.2,0-0.5,0-0.7,0.1c-0.1,0-0.2,0.1-0.3,0.2l-0.9-0.5l-1-0.5
			c-0.2,0.1-0.3,0.1-0.5,0.2c-0.4,0-0.6,0.2-0.9,0.5c-0.3,0.2-0.5,0.5-0.9,0.5c-0.1,0-0.2,0-0.3,0c0-0.1,0-0.3-0.1-0.4l-0.6-0.2
			l-0.6-0.2c0-0.1,0-0.2,0.1-0.3c0-1.1,0-2.1-0.1-3c0-0.1,0-0.1,0-0.2c0-0.3-0.1-0.6-0.1-0.9l-0.6-0.9L99.1,59c0-0.1,0-0.3,0-0.4
			c0.1-0.5,0.1-0.9-0.1-1.2c-0.2-0.2-0.6-0.4-1.1-0.4c0,0,0,0,0,0c-1,0.6-2.1,0.9-3.1,0.9c-1.7,0-3.3-0.8-5-2.5
			c-0.3-0.3-0.6-0.6-0.9-0.8l-0.4-0.4c-0.6-0.5-1.1-0.8-1.5-0.8c-0.8,0-1.3,0.8-1.9,1.5l-0.3,0.4l-0.1,1.4c-0.3,0.2-0.7,0.3-1,0.3
			c-0.6,0-1.2-0.3-1.8-0.6l-0.2-0.1c-0.1-0.1-0.2-0.2-0.2-0.3C81.1,56,81.1,56,81,55.9c-0.3-0.4-0.7-0.7-1.2-1
			c-0.5-0.5-0.6-1.2-0.8-1.8c-0.1-0.7-0.3-1.4-0.8-1.9l-1.1-2.5c-0.3-0.6-0.8-0.9-1.3-1.2c-0.5-0.3-1-0.6-1.3-1.2
			c-0.9-1.9-2.8-3-4.3-3.6L59.1,34c-0.2-0.2-0.5-0.3-0.7-0.4L58,33.8c-0.3-0.1-0.7-0.2-1-0.2l-0.3,0c-1-1.5-2.2-3-4.2-3.6l-0.9-0.5
			l-1.1-1.2c-0.3-0.6-0.8-1-1.3-1.4c-0.5-0.3-1-0.7-1.3-1.3l-0.1-1.6c0.1-1.9-1.3-2.5-2.6-3l-0.2-0.1c-0.1,0-0.2-0.1-0.3-0.1
			c-0.2,0-0.4-0.1-0.4-0.2l-0.1-0.3c-1.2-3.4-2.3-6.9-6.5-8.1c-0.2-0.1-0.3-0.3-0.5-0.6c-0.1-0.2-0.2-0.5-0.4-0.6l-0.3-0.3
			c-0.5-0.5-0.9-1-1.6-1c-0.1,0-0.2,0.1-0.3,0.1c0,0-0.1,0-0.1,0c-0.3,0.1-0.7,0.3-1,0.6c-0.3,0.3-0.7,0.4-1.2,0.4
			c-0.5,0-1.2-0.2-2-0.5c-1.3-0.6-2.7-0.8-4.1-0.8c-1,0-2,0.1-2.9,0.4c-2,0.6-3.9,0.8-5.9,0.8l-0.3,0l-3.8-2.2c-1.9-2.5-4-4-6.5-4.7
			c-0.2,0-0.5,0-0.7,0c-0.3,0-0.5,0-0.8,0c-0.3,0-0.6,0-0.8,0.1C4.3,3.9,3.9,4,3.5,4.1C2.4,4.3,1.3,4.4,1.1,6
			c-0.3,1.2-0.3,2.5,0,3.7c-0.1,0.5-0.1,0.9,0.4,1.2c0.2,0.3,0,0.6-0.2,0.9C1.2,12,1,12.2,1.1,12.5c0,0.2,0.2,0.3,0.4,0.5
			c0,0,0,0,0,0c0.1,0.2,0.1,0.3,0,0.5l3.6,5.9c0.3,0.7,0.9,1.1,1.5,1.4L6.9,21l2.7,2.6l1.5,2.2c0.3,0.9,1.1,1.3,1.9,1.6
			c0.8,0.3,1.6,0.6,1.9,1.5c0.2,0.6,0.6,0.9,1.1,1.1l2.5,2.3c0.1,0.2,0.2,0.4,0.4,0.6c0.3,0.6,0.7,1.2,1.4,1.5
			c3.6,0.5,6.2,2.3,8.1,5.4c0.2,0.4,0.6,0.6,1,0.9c0.2,0.1,0.4,0.3,0.5,0.4l0,0c0,0,0,0,0,0c0,0,0,0,0,0c0,0,0,0,0,0l-0.1,0.1
			l0.1-0.1c0,0,0,0,0,0c0.2,0.8,0.4,1.6,1.1,2.2c0.7,1.1,1.8,2,2.9,2.9c1.3,1.1,2.7,2.2,3.3,3.8c0,0,0,0,0,0.1
			c0.1,0.2,0.2,0.5,0.2,0.7c0,0.2,0.1,0.3,0.1,0.5c0,0.2,0.1,0.4,0.1,0.6c-0.7,1.2-0.7,2.4,0.1,3.7c0.5,1.3,1.6,1.3,2.7,1.4l0.3,0
			c2.2,0.1,4.2,0.9,6.2,1.8l0.4,0.7c1.4,0.3,2.4,1.3,3.4,2.3c0.3,0.3,0.6,0.6,0.8,0.8c0.3,0.5,0.8,1.1,1.5,1.1c0.1,0,0.2,0,0.2-0.1
			c0,0,0,0,0,0c0,0.4,0,0.7,0,1.1c0,0.5,0,1.1-0.1,1.7c0.3,0.9,0.6,1.7,0.9,2.5c0.8,2.1,1.6,4.3,1.8,6.6c0.1,1.9,0.8,3.6,1.4,5.3
			c0.6,1.6,1.2,3.2,1.4,4.9c0.1,0.6,0.6,0.9,1.1,1.1l0.2,0l0.2,0.1c3.3,0.8,6.5,1.8,7.9,5.2c0.3,1,0.9,1.8,1.5,2.6
			c0.4,0.5,0.8,1,1.2,1.6c0.2,0.3,0.4,0.7,0.8,0.7c0.1,0,0.2,0,0.2,0c0.4,0.8,0.9,1.3,1.6,1.5l0.7,1l0.7,1c0,0.1,0,0.3,0,0.4
			c0.2,0.4,0.5,0.9,0.7,1.3c0.8,1.5,1.6,3,2.7,4.3l0.1-0.1l0,0c-0.1,0.6-0.2,1.2,0.5,1.7c1.8,1.2,2.4,3.1,3,4.9
			c0.3,1,0.7,2.1,1.2,3.1c0.3,0.9,0.8,1.8,1.7,2.5c0.4,0.2,0.6,0.6,0.8,1.1l0.1,0.1c0,0,0,0,0,0c0,0,0,0,0,0c-2.2,2-2.1,2.8,0.6,5.8
			l2.7,3.5c0.2,0.5,0.5,0.9,0.8,1.1c0.3,0.2,0.6,0.4,0.8,0.6c0.4,0.3,0.8,0.6,1.2,0.9c0.3,0.2,0.6,0.4,0.9,0.5
			c0.1,0.3,0.2,0.6,0.5,0.8c0.4,1.5,1.3,2.7,2.5,3.9c0,0.9,0.6,1.4,1.1,1.9c0.2,0.1,0.3,0.3,0.5,0.4c1.4,1.3,3.2,2.6,5.4,3.8
			c0.1,0.3,0.3,0.7,0.7,0.8c0.1,0,0.2,0.1,0.4,0.1c0,0,0,0,0.1,0l0,0.1l0,0.1l0.5,0.3l0.7,0.3c-0.1,0.4,0,0.8,0.2,1.1
			c0.4,0.6,0.6,1.4,0.8,2.1c0.4,1.3,0.7,2.7,2.3,3.3c0.3,0.7,0.9,1,1.7,1c0,0,0,0,0,0l2.2,1.8c0.3,0.4,0.7,0.9,1.4,0.9c0,0,0,0,0,0
			l1.2,1c0.3,0.6,0.9,1,1.5,1.1c0.6,0.2,1,0.8,1.3,1.3c0.4,0.7,0.9,1.4,1.9,1.4c0,0,0,0,0,0c0,0.1,0.1,0.2,0.2,0.3c0,0,0,0,0.1,0
			c0.1,0,0.1,0.1,0.2,0.1c0,0,0.1,0,0.1,0c1.3,1.5,3,2.5,4.7,3.4l0.8,0.5c3.2,1.7,6.5,3.5,7.9,7.3c0.5,1.2,1.5,1.9,2.5,2.6
			c0.2,0.2,0.4,0.3,0.6,0.4l0,0.2c0.2,1,0.4,2.1,1.6,2.1c0.2,0.6,0.6,0.9,1.1,0.9l0.8,0.1c0.6,1.3,1.3,1.9,2,1.9
			c0.5,0,1.1-0.3,1.7-0.9c0-0.1,0-0.2,0-0.3c0-0.2,0-0.5,0.1-0.7c0.2-0.4,0-0.8-0.3-1.2c-0.2-0.3-0.4-0.6-0.3-0.9
			c0.1-0.2,0.3-0.4,0.6-0.5c0.2-0.1,0.5-0.2,0.7-0.2c0.9,0,1.7,0.7,2.2,1.3c1.1,1.2,2.5,1.4,3.7,1.4
			C151.1,177.7,151.3,177.7,151.5,177.7z"/>
	</g>
	<g>
		<path class="st0" d="M313.7,148.2c0.1,0.1,0.2,0.3,0.2,0.4c0.1,0.2,0.2,0.4,0.3,0.5c0,0.4,0.2,0.7,0.3,1c-0.1,0.6,0.1,1.1,0.7,1.4
			c0.1,0,0.2,0.1,0.3,0.1c0.3,0,0.5-0.3,0.7-0.6c0.1-0.1,0.1-0.2,0.1-0.2l1-0.4c0.2-0.3,0.5-0.5,0.8-0.8c0.7-0.6,1.5-1.3,1.3-2.6
			l0,0c0,0,0,0,0,0l0.1-0.2c0-0.1-0.1-0.2-0.1-0.3c0-0.2-0.1-0.4-0.2-0.6c-0.1-0.2-0.2-0.4-0.2-0.7c0,0,0-0.1,0-0.2c0,0,0-0.1,0-0.1
			c0.1,0,0.2,0,0.4,0c0.1,0,0.3,0,0.4,0c0.2,0,0.5,0,0.7-0.2c0.2-0.2,0.2-0.4,0.2-0.8c0-0.3,0-0.7,0-1.2c0-0.9,0.1-1.9-0.3-2.2
			c-0.1-0.1-0.2-0.1-0.5-0.1c0,0,0,0,0,0c-1,0-1.1-0.5-1.2-1c0-0.2-0.1-0.4-0.2-0.6c-1-1.8-0.1-3.3,0.8-4.6c0.5-0.3,0.3-0.7,0.2-1.1
			c-0.2-0.6,0-1.2,0.2-1.8c0.1-0.2,0.2-0.5,0.2-0.8c-0.1-0.5,0-0.9,0.1-1.1c0.1-0.1,0.3-0.2,0.5-0.2c0.2,0,0.4,0,0.6,0.1
			c1-0.5,2-2.4,2.4-3.9c0.4-1.2,0.4-2.2,0.1-2.7c-0.2-0.3-0.5-0.6-0.8-0.7c-0.5-0.1-0.9-0.3-1-0.6c-0.2-0.3-0.1-0.8,0.1-1.5
			c0.3-0.9,0.5-2.3-0.3-3.6c-0.2-0.4-0.3-0.7-0.3-0.9c0-0.1,0.1-0.2,0.2-0.2c1.1-0.4,1.4-1.3,1.6-2.1c0.1-0.4,0.3-0.9,0.5-1.3
			c0.7-0.6,1.6-1,2.5-1.4c1.5-0.6,3-1.3,3.7-2.9l1.7-1.6c0.9-1.3,2.2-1.5,3.5-1.7c0.6-0.1,1.3-0.2,1.9-0.4l0.1-0.2
			c0.2-0.4,0.4-0.7,0.8-0.8c0.5-0.4,0.9-0.9,0.7-1.6c-0.8-1.4-0.8-2.5,0.1-3.6c0.2-0.3,0.3-0.6,0.4-0.8c0,0,0,0,0-0.1
			c0-0.1,0-0.2,0-0.3c-0.1-0.3-0.4-0.5-0.8-0.7c-1.2-0.4-1.7-0.8-1.9-1.3c-0.2-0.5,0-1.2,0.7-2.1c0.5-0.7,0.8-1.3,0.5-2.2
			c-1.1-3.3,0.5-5.7,2.1-7.5c0.3-0.4,0.6-0.8,0.9-1.2c0.6-0.7,1.2-1.4,1.4-2.3c0.1-0.2,0.1-0.5,0.1-0.7c0.3,0,0.6,0.1,0.8,0.2
			c0.3,0.1,0.7,0.2,1,0.2c0.3,0,0.5-0.1,0.6-0.2c0.3,0,0.7-0.1,1-0.2c1.2,0.2,2.4,0.2,3.5,0.2c1.7,0,3.4,0,5,0.5
			c0.5,0.1,1,0.2,1.4,0.2c1.2,0,2.1-0.6,2.8-1.9l1.1-1.6c0.5-1,0.7-1.4,0.5-1.8c-0.2-0.3-0.8-0.5-2.1-0.6c-0.2-0.4-0.5-0.7-0.8-1.1
			c-0.1-0.1-0.2-0.2-0.3-0.4c-0.3-0.4-0.6-0.7-1-1.1c-0.1-0.1-0.1-0.1-0.2-0.2c-1.4-1.3-2.9-2.4-4.5-3.4c-1.1-0.7-2.3-1.5-3.3-2.3
			c-0.4-0.7-0.9-1-1.7-1.1l-0.6-0.4c-1.3-0.6-1.8-1.8-2.3-3l-0.1-0.2c0.1-0.2,0.1-0.3,0-0.4c0.3-0.7,0.8-1.3,1.3-1.9
			c0.6-0.7,1.2-1.4,1.4-2.4c0.6-0.9,0.1-1.5-0.3-2c-0.1-0.1-0.2-0.2-0.3-0.4c-2.8-1.9-3.9-4.8-5-7.5c-0.4-1-0.8-1.9-1.2-2.9
			c-0.3-0.6-0.2-0.8,0.3-1.2c1.6-1.2,1-2.8,0.4-4.1c-0.1-0.2-0.3-0.3-0.5-0.4c0.1-0.7,0.6-1,1.4-1.4c0.9-0.4,1.5-1,1.7-1.6
			c0.2-0.6,0.1-1.3-0.3-2c-0.2-0.2-0.5-0.2-0.7-0.2l-0.4,0c-0.2,0-0.5,0-0.7-0.3c-0.3,0-0.4-0.1-0.5-0.3c-0.1-0.2-0.1-0.4,0-0.7
			c0.6,0,1.1-0.3,1.5-0.6c0.5-0.3,1-0.6,1.6-0.6c0.2,0,0.3,0,0.6,0.1c0.1,0,0.1-0.1,0.1-0.1c0,0,0,0,0.1,0c0,0,0.1,0,0.1-0.1
			c0.1-0.2,0.2-0.5,0-0.8l-0.1-0.3c-0.3-0.8-0.6-1.7-1.5-2.1c0,0,0,0,0,0c-0.3-0.1-0.7-0.2-1.2-0.2c0,0,0,0,0,0c-0.4,0-0.8,0-1.2,0
			c-0.6,0-1.3,0-1.9,0c-0.4,0-0.8,0-1.2,0c-0.1,0-0.1,0-0.2,0c-0.9-1-1.9-1.6-2.9-1.9c0,0,0,0,0,0c-0.6-0.2-1.3-0.4-2-0.4
			c-0.5,0-1,0-1.5,0.1c-1.7,0.3-3.3,0.5-4.9,0.5c-1.8,0-3.5-0.2-5.1-0.6c-0.2-0.3-0.5-0.5-0.7-0.6c0,0,0,0,0,0
			c-0.1,0-0.2-0.1-0.3-0.1c-0.2,0-0.4,0.1-0.6,0.2c-0.4,0.1-0.7,0.4-1.1,0.6c-0.7,0.4-1.3,0.8-2,0.8c-0.7,0-1.3-0.4-1.8-1.1
			c-0.2-0.2-0.4-0.3-0.7-0.3c-0.4,0-0.8,0.2-1.1,0.4c-0.3,0.2-0.6,0.5-0.9,0.7c-0.9,0.7-1.8,1.3-2.1,2.5c-0.1,0.1-0.1,0.2-0.1,0.3
			c-0.1,0.5-0.2,0.9-0.3,1.4c-0.3,1.3-0.6,2.7-1.1,3.9c-0.5,1.2-0.5,2.5-0.4,3.7c0.1,1,0.1,2-0.2,3c-0.4,0.5-0.4,1.1-0.4,1.7l0,0.3
			c0,1.9-0.8,2.9-2.5,2.9c-0.2,0-0.5,0-0.8-0.1c-0.2,0-0.4-0.1-0.6-0.1c-1.6,0-2.1,1.4-2.5,2.6c-0.1,0.3,0,0.6,0,0.9
			c0.1,0.5,0.1,0.9-0.2,1.3c-0.1,0.2-0.2,0.4-0.2,0.6c-0.3,0.7-0.7,1.4,0.2,2.1c0.3,0.3,0.5,0.5,0.5,0.7c0,0.2-0.3,0.4-0.5,0.6
			c-0.2,0.1-0.4,0.3-0.5,0.4c-0.7,0.3-1.2,0.8-1.6,1.5c-1.1,0.4-1.8,1.1-2.1,1.9c-0.4,0.9-0.3,2,0.4,3.4c0.2,0.5,0.2,0.8,0.1,1.4
			c-1.1,0.7-1.7,1.8-2.1,3.4c-0.7,0.2-0.9,0.9-1.1,1.6c-0.1,0.5-0.3,0.9-0.5,0.9c-0.1,0-0.1,0-0.2,0c-0.5-0.2-1.1-0.4-1.7-0.4
			c-0.8,0-1.6,0.2-2.4,0.5c-0.8,0.2-1.5,0.4-2.3,0.4c-0.4,0-0.8-0.1-1.1-0.2c-0.1,0-0.2,0-0.3,0c-1.2,0-2.1,0.5-2.9,1.4
			c-0.6,0.7-1.3,1.1-2.3,1.1c-0.6,0-1.1-0.1-1.7-0.2c-0.6-0.1-1.2-0.2-1.7-0.2c-0.2,0-0.4,0-0.5,0.1c-0.1-0.1-0.1-0.3-0.2-0.4
			l-1.1-0.6l-1,0c-0.2-0.2-0.4-0.4-0.6-0.6c-0.1-0.1-0.2-0.2-0.2-0.2c-0.7-0.7-1.5-1.1-2.4-1.5c-0.1,0-0.2-0.1-0.3-0.1
			c-0.5-0.2-1-0.3-1.5-0.3c-0.1,0-0.2,0-0.4,0c-0.2,0-0.4-0.1-0.6-0.1c-0.5,0-0.9,0-1.4,0.1c-0.5,0.1-1.1,0.1-1.6,0.1l-1.6,0
			c-1.8,0-3.7,0.1-5.2,1.8c-1,0.5-1.1,1.4-1.2,2.3c-0.1,0.7-0.2,1.4-0.7,1.9c-0.1,0-0.2,0-0.2,0.1c0,0.1-0.1,0.1,0,0.2
			c-0.8,0.2-1.6,0.6-2.3,1c-0.9,0.5-1.8,1-2.9,1c-0.3,0-0.7-0.1-1.1-0.2c-0.1,0-0.1,0.1-0.2,0.1c-0.1,0.1-0.3,0.1-0.4,0.3
			c-0.1,0-0.3,0-0.4,0c-0.7,0-1.4-0.2-2.1-0.4c-0.7-0.2-1.4-0.4-2.1-0.4c-0.1,0-0.2,0-0.3,0l-1-0.1c-0.3-0.2-0.7-0.3-1.1-0.3
			c-0.4,0-0.9,0.1-1.3,0.2c-0.4,0.1-0.9,0.2-1.3,0.2c-0.1,0-0.2,0-0.3,0c-1.3,0.3-2.4,0.8-3.3,1.5c-0.6,0.5-1.2,0.8-1.9,0.8
			c-0.6,0-1.2-0.2-1.9-0.7l-0.2-0.1c-0.3-0.1-0.7-0.3-1-0.3c-0.1,0-0.2,0-0.2,0c-0.7-1.6-2.2-2.5-3.6-3.4l-0.4-0.3l-0.5-0.2
			c-0.1-0.2-0.3-0.3-0.4-0.5c-0.1-0.1-0.3-0.3-0.4-0.4c-0.5-0.6-1.2-1.1-1.9-1.6c-0.2-0.5-0.6-0.9-1-1.1c-1.3-1.9-2.9-4.2-3.7-6.8
			c0.5-0.2,0.8-0.5,0.9-0.8c0.1-0.2,0.1-0.4,0-0.6c-0.1-0.2-0.2-0.3-0.3-0.3c-0.2,0-0.5,0.2-0.7,0.5l-0.5,0c-1.6,0-3.2,0.1-4.3,1.7
			c0,0-0.1,0.2-0.1,0.3c-0.4,0.6-0.8,1.1-1.3,1.7c-1.1,1.4-2.2,2.9-2.8,4.7c-0.2,0.8-0.3,1.7-0.4,2.6c-0.3,2.3-0.6,4.8-2.2,6.8
			c-0.3,0.2-0.4,0.5-0.5,0.7c0,0.3,0.1,0.6,0.4,0.9c0.4,0.3,0.5,0.7,0.6,1.2c0.1,0.3,0.1,0.7,0.3,1l0,0.5c0,0.5,0,1-0.1,1.4
			c-0.1,1.3-0.3,2.6,1.1,3.4c1.9,1.1,2.7,2.7,2.8,5.2l0,0.5c-2.1,1.2-2.4,2.8-1.2,5.2c0.2,0.5,0.5,1,0.8,1.4
			c0.9,1.5,1.9,3.1,1.4,5.1c-0.2,0.2-0.2,0.3-0.2,0.4c0,0.1,0.2,0.1,0.4,0.2c1.1,0.1,2.3,0.2,2.7,0.9c0.3,0.5,0.2,1.3-0.2,2.3
			c-0.6,0.6-0.6,1.3-0.1,2.2c0.6,0.7,1.2,1,1.9,1c0.7,0,1.5-0.4,2.2-1.1c0.7-0.7,1.4-1,2.1-1c0.5,0,1.1,0.2,1.8,0.6l1.7,3.7
			l-1.1,3.1c0,0,0,0,0,0c-1,1.2-1.4,1.8-1.4,2.3c0.1,0.5,0.5,0.8,1.4,1.5l-0.1,0.2c0.1,0.1,0.3,0.1,0.4,0.1c0.4,0.1,0.8,0.3,1.1,0.5
			c0.1,0.1,0.1,0.1,0.2,0.2c0.3,0.8,0.2,1.7,0.2,2.6c-0.1,0.9-0.1,1.9,0.3,2.9c0.5,0.5,0.6,1.2,0.7,1.8c0.2,0.7,0.3,1.4,0.8,2
			l-0.1,3.5c-0.2,0.3-0.3,0.6-0.3,0.9c0,0,0,0,0,0c0,0.1,0,0.2,0,0.4c0.1,0.7,0.8,1.3,1.1,1.5c0.1,0.1,0.2,0.1,0.4,0.1
			c0,0,0.1,0,0.1,0c0.1,0,0.1,0.1,0.2,0.1c0.6,0,1.2-0.4,1.7-0.8c0.3-0.2,0.5-0.4,0.8-0.5l1.6,0.1l0.1,0.2c0.4,0.8,0.9,1.5,1.6,1.7
			c0,0,0,0,0.1,0c0.1,0,0.2,0.1,0.4,0.1c0.4,0,0.9-0.2,1.4-0.5c0.1-0.1,0.2-0.1,0.4-0.1c0.3,0,0.7,0.2,0.9,0.6
			c0.4,0.6,0.8,0.9,1.5,0.9c0.3,0,0.7-0.1,1.2-0.3c0.3-0.2,0.6-0.4,1-0.6c1.3-0.9,2.7-1.8,4.1-1.8c0.9,0,1.9,0.4,2.9,1.1
			c0.1,0,0.2-0.1,0.4-0.2l0.2-0.1l0.3,0l0.2-0.2c0.5-0.2,1-0.4,1.5-0.4c0.2,0,0.3,0,0.5,0c0,0,0,0,0,0c-0.1,0.4-0.2,0.8-0.3,1.2
			c-0.2,0.8-0.4,1.6-0.2,2.4c0.1,0.4,0.2,0.7,0.3,1.1c0.2,0.6,0.4,1.2,0.3,1.9c0.2,0.4,0,0.8-0.2,1.1c-0.2,0.3-0.4,0.7-0.2,1.1
			c0.7,0.2,1.3,0.3,1.9,0.3c0.9,0,1.7-0.4,2.3-1.1c1.3-1.7,2.6-2.5,4-2.5c1,0,2,0.4,3.1,1.2c0.4,0.3,1.1,0.7,1.7,0.7
			c0.7,0,1.2-0.5,1.4-1.5c0.4-0.2,0.9-0.4,1.3-0.6c1.7-0.7,3.4-1.5,3.6-4.1c0-0.2,0.1-0.2,0.1-0.2c0.2,0,0.4,0.2,0.7,0.4
			c0.2,0.1,0.4,0.3,0.5,0.3l0.4,0.5c0.3,0.5,0.7,0.9,1.2,1c0.5,0.5,1.2,0.7,1.9,0.9c0.3,0.1,0.5,0.1,0.7,0.2c0.1,0,0.2,0.1,0.3,0.1
			c0.3,0,0.6-0.1,1-0.2c0.3-0.1,0.6-0.2,0.9-0.2c0.3,0,0.6,0.1,0.9,0.4l-0.5,1c-0.5,1.3,0.3,2,1.1,2.7c0.4,0.2,0.7,0.3,1.1,0.3
			c0.3,0,0.6-0.1,0.9-0.4c1.3-1.1,2.5-1.6,3.8-1.6c0.4,0,0.7,0,1.1,0.1c0.5,0.5,1.1,0.6,1.8,0.7c0.4,0.1,0.8,0.1,1.2,0.3
			c1,0,1.7,0.6,2.3,1.2c1.3,1.4,1,3.2,0.7,4.7c-0.3,1.8,0,3.3,1,4.7c0.4,0.3,0.8,0.5,1.2,0.5c0.4,0,0.9-0.2,1.4-0.5
			c1.2-0.4,2.4-0.8,3.5-1.3c1.2-0.4,2.4-0.9,3.6-1.3l0.3-0.1c0.8-0.3,1.5-0.5,1.9-1.3c0,0,0,0-0.1-0.1c0,0,0-0.1-0.1-0.1
			c0.2,0.1,0.4,0.1,0.5,0.1c0.4,0,0.7-0.3,0.9-0.9c0-0.3,0.2-0.4,0.5-0.4c0,0,0,0,0,0c0.3-0.2,0.7-0.3,1.1-0.3c0.2,0,0.8,0,0.9,0
			c0.7,0,1.4-0.2,1.7-1.2c0.3,0.2,0.7,0.2,1.1,0.2l0.8,0C312.6,146.6,313.5,146.8,313.7,148.2z M318.7,147.1
			C318.7,147.2,318.7,147.2,318.7,147.1l-0.1,0.2c0,0,0,0-0.1,0.1c-0.2-0.3-0.2-0.3-0.2-0.4l0,0c0,0,0,0,0,0v0
			C318.5,147.1,318.6,147.1,318.7,147.1z M222.8,115.5c0.1,0.1,0.1,0.1,0.2,0.1c0,0,0,0,0,0C222.9,115.6,222.9,115.6,222.8,115.5
			C222.8,115.5,222.8,115.5,222.8,115.5z"/>
	</g>
	<g>
		<path class="st0" d="M484.7,216.2c-0.2-0.1-0.3-0.2-0.4-0.3c-1.7-0.6-3.1-0.9-4.3-0.9c-1.6,0-3.1,0.5-4.4,1.5
			c-0.5,0.4-1.2,0.8-1.9,0.8c-0.4,0-0.8-0.1-1.1-0.3c-0.1-0.4-0.3-0.5-0.6-0.5c-0.1,0-0.2-0.1-0.4-0.1c-0.2,0.1-0.5,0.1-0.8,0.1
			l-0.3,0l-0.9-0.1c-0.5,0-1,0.2-1.6,0.5c-0.7,0.5-1.5,0.5-2.2,0.5c-0.6,0-1.2,0-1.8,0.3c-0.4,0-0.8,0-1.3,0.1
			c-0.4-0.2-0.9-0.3-1.5-0.3c-1.8,0.1-3.6,0.3-5.2,0.7c-0.4,0.1-0.9,0.2-1.4,0.2c-1.8,0.3-3.6,0.5-4.3,2.2c-1.4,3.2-4.1,4.3-6.8,5.6
			c-0.6,0.3-1.2,0.5-1.8,0.8c-4.9,1.6-8.6,3.5-11.7,6.1c-1,0.8-2,1.7-2.1,3c-0.1,1.4-0.6,2.6-1,3.9c-0.2,0.6-0.4,1.3-0.6,2
			c0,0.1,0,0.1-0.1,0.2c0,0,0,0.1,0,0.1c-0.1,0-0.2,0-0.3,0c-0.8,0-1.4,0.6-1.9,1.2l-0.3,0.4c-0.5,0.6-1,1.3-0.8,2
			c0.4,2.6-1.4,3.6-3,4.7l-0.4,0.2c-0.3,0.2-0.7,0.4-0.9,0.7c0,0,0,0-0.1,0.1c-0.1,0.1-0.2,0.2-0.3,0.3c-0.7,0.1-1.2,0.5-1.7,0.9
			c0,0-0.1,0.1-0.1,0.2c0.2,0.3,0.1,0.9-0.1,1.4c-0.2,0.6-0.3,1.1,0,1.5c0,0,0.1,0,0.1,0.1c0,0,0,0,0,0c0.2,0.2,0.6,0.3,1.1,0.3
			c0.1,0,0.3,0,0.5,0l0.7-0.4c0.1,0,0.2,0.1,0.3,0.1c0.4-0.1,0.9-0.1,1.4-0.2c1.9-0.2,3.9-0.4,4.5-3.1c1.3-1,1.2-2.3,1.1-3.6
			c0-0.3,0-0.5,0-0.8c0-0.6,0.1-0.9,0.3-1.1c0.1-0.1,0.2-0.1,0.4-0.1c0.3,0,0.7,0.2,1,0.3c0.8,0.1,1.9,0.3,3,0.3
			c1.9,0,3.4-0.5,4.6-1.4c1.3-1.1,2.6-1.5,4.3-1.5c0.4,0,0.8,0,1.3,0.1c0.2,0,0.4,0,0.6,0c0.5,0,0.8-0.1,1.1-0.4c0,0,0,0,0,0
			c0.4-0.3,0.7-0.8,0.8-1.6c0.1,0,0.1,0,0.2-0.1l0.5-0.6l0.6-0.6c0.5-0.3,1.1-0.5,1-1.2c0.5-0.1,0.8-0.4,0.9-0.9l0.2-0.3
			c0.5-0.6,0.9-1.3,1.9-1.3c0.2-0.1,0.4-0.2,0.6-0.4c0.5-0.5,0.7-1.1,0.9-1.8c0.3-0.9,0.5-1.8,1.5-2.1c1.2-0.4,2.3-1,3.4-1.6
			c1.6-0.9,3.3-1.8,5.2-2.1c0.2-0.1,0.4-0.2,0.7-0.2c0.2,0,0.4,0,0.5,0c0.2,0,0.4,0,0.5,0c0.4,0,0.7-0.1,1-0.3
			c0.2-0.1,0.4-0.2,0.6-0.3c0.4-0.2,0.9-0.5,1.2-0.8c1.2-1,2.8-1.3,4.4-1.6c2.1-0.4,4.3-0.8,5.6-3.1c0.1-0.1,0.3-0.2,0.5-0.2
			c1.7-0.1,3.2-0.8,4.7-1.6c0.7-0.4,1.4-0.7,2.1-1c0.2,0,0.4-0.1,0.5-0.2c0,0,0,0,0.1,0c1-0.5,1.7-1.3,2.3-2.2
			c0.2-0.2,0.3-0.4,0.5-0.7C485.7,216.7,485.2,216.5,484.7,216.2z"/>
	</g>
	<g>
		<path class="st0" d="M421.7,220.3c0.8,0,1.5,0.1,2.3,0.4c0.1,0,0.3-0.1,0.4-0.1c0.2,0.2,0.4,0.3,0.7,0.3c0.1,0,0.2-0.1,0.3-0.1
			c0,0,0,0,0,0c0.1,0,0.2,0,0.4-0.1c0.2-0.1,0.3-0.2,0.2-0.3c2.4-0.8,4.3-2.5,6.1-4.2c0,0,0.1,0,0.1,0c0,0,0.1,0,0.1,0c0,0,0,0,0,0
			c-0.4,0.7-0.6,1.4-0.4,1.9c0.2,0.6,0.8,1.1,1.8,1.5c0.7,0.7,1.5,1,2.2,1c0.1,0,0.2,0,0.3-0.1c0.1,0,0.1,0,0.2,0
			c0.3-0.1,0.5-0.2,0.8-0.3c0,0,0.1-0.1,0.1-0.1c0.1-0.1,0.3-0.2,0.4-0.3c0.7-0.6,1.5-0.7,2.3-0.7c0.4,0,0.8,0,1.1-0.1
			c1.1-0.8,2.2-0.8,3.4-0.8l0.9,0c0.7,0,1.4,0,2.2-0.2c0.7,0,1.2-0.3,1.7-1c0.9,0,1.6-0.1,2-0.5c0.4-0.4,0.5-1,0.5-1.9
			c-0.1-1.7-0.7-2-1.8-2c-0.2,0-0.9,0-1,0c-1.1,0-2.2,0-3.4,0l-3,0.1l-0.3,0c-0.4,0-0.9,0-1.3,0.1c-0.4,0-0.9,0.1-1.3,0.1
			c-0.7,0-1.3-0.1-1.9-0.2l-1.1,1.1c-0.7,0.7-1.3,1.1-1.9,1.1c-0.7,0-1.5-0.5-2.2-1.5c-0.3-0.5-0.7-0.7-1.2-0.7
			c-0.3,0-0.7,0.2-1.1,0.4c-1.1,0.9-2.3,1-3.2,1c-0.5,0-0.9,0-1.4-0.1c-0.5,0-0.9-0.1-1.4-0.1l-0.3,0l-0.5-0.1
			c-0.2-0.2-0.5-0.3-0.8-0.3c-0.4,0-0.7,0.2-1,0.4c-0.6,0.3-1,0.5-1.3,0.5c-0.7,0-0.9-0.8-1.1-1.6c-0.1-0.3-0.1-0.5-0.2-0.8
			c-0.3-0.4-0.7-0.6-1.1-0.6c-0.3,0-0.6,0.1-1,0.3c-1,0.1-1.6,0.3-1.9,0.8c-0.5,0.7,0,1.8,0.5,3l0.1,0.1c0,0,0,0,0,0
			c-0.4-0.1-0.8-0.1-1.2-0.1c-0.5,0-0.9,0.1-1.3,0.2c0,0-0.1,0-0.1,0.1c-0.3,0.1-0.6,0.3-0.8,0.6c0,0-0.1,0.1-0.1,0.1
			c-0.3,0.3-0.5,0.7-0.7,1.2c-0.4,1.4-1.2,2.1-2.3,2.1c-0.6,0-1.4-0.3-2.2-0.7c-0.2-0.3-0.4-0.3-0.6-0.3c-0.1,0-0.2,0-0.3,0
			c-0.1,0-0.2,0-0.2,0c-0.2-0.2-0.3-0.4-0.5-0.6c-0.4-0.6-0.8-1.2-1.6-1.2c-0.2,0-0.3,0-0.5,0.1c-0.8,0.2-1.6,0.4-2.4,0.6
			c-1.5,0.5-3.2,0.9-4.7,0.9c-1.8,0-3.3-0.6-4.7-1.9c-0.2-0.1-0.4-0.1-0.7-0.1c-0.1,0-0.3,0-0.3,0c-0.7-1-1.7-1.1-2.7-1.1
			c-0.7,0-1.5,0-2.1-0.4c-0.1-0.3-0.4-0.4-0.6-0.4c-0.2,0-0.3-0.1-0.5-0.2l-1.5-0.1c-0.6-0.5-1.2-0.7-1.9-0.7
			c-0.8,0-1.6,0.3-2.3,0.7c-0.6,0.3-1.3,0.6-2,0.6c0-0.1-0.1-0.1-0.2-0.1c-0.1,0-0.1,0-0.2,0.1c-0.6,0.4-1.3,0.8-1.9,1.2
			c-1.7,0.9-3.4,1.8-3.9,4.1c-0.2,0.2-0.4,0.3-0.6,0.3c-0.3,0-0.6-0.2-0.8-0.4c-0.3-0.2-0.5-0.5-0.9-0.5c-0.1,0-0.2,0-0.2,0.1
			c0,0,0,0,0,0c-0.1-1.4-1.1-2.1-2-2.9l-0.2-0.2l-1.1,0.5c-0.6,0.6-0.7,1.3-0.8,2c-0.1,0.4-0.1,0.7-0.2,1.1
			c-0.1,0.1-0.1,0.1-0.3,0.1c0,0,0,0-0.1,0c-0.7,0.9-0.7,1.8,0,2.7c0.6,0.4,1.1,0.6,1.5,0.6c0.7,0,1.2-0.5,1.7-1.1
			c0.1-0.1,0.2-0.3,0.3-0.5c0.2,0.7,0.6,1.3,1.3,1.8c0.2,0.2,0.4,0.3,0.7,0.4c0,0,0,0,0.1,0c0,0,0,0,0.1,0c0.1,0,0.2,0,0.3-0.1
			c0.1,0,0.1,0,0.2,0c0.2,0,0.4-0.1,0.5-0.2c0.2-0.1,0.3-0.2,0.4-0.4c0.2,0.3,0.4,0.5,0.8,0.7c0.3,0.1,0.5,0.2,0.8,0.3
			c1,0.1,2,0.1,2.7,0.1l2.6,0c0.4,0,0.7,0,1.1,0c0.5-0.1,1-0.2,1.6-0.2c0.6,0,1.1,0,1.7,0.1c0.6,0,1.1,0.1,1.7,0.1
			c0.5,0,1,0,1.5-0.2l-0.1,0.2c0.4,0.8,1.1,1,1.6,1c0.2,0,0.5,0,0.7,0l0.5,0c0.2-0.1,0.4-0.2,0.6-0.2c0.1,0,0.1,0,0.3,0.1
			c0.2,0.1,0.3,0.4,0.3,0.8c0.3,0.2,0.6,0.3,0.9,0.3c0.1,0,0.2,0,0.3,0l1.4-0.4c2.2-0.6,4.4-1.2,6.7-1.2c1,0,2,0.1,3,0.4
			c0.1,0,0.2-0.1,0.5-0.2c1-0.5,2.1-0.7,3.3-1c0.4-0.1,0.8-0.2,1.2-0.3c0.8-0.3,1.6-0.3,2.5-0.3c0.5,0,1,0,1.5-0.1
			c0.5-0.1,0.9-0.2,1.3-0.4c0.4-0.2,0.8-0.3,1.2-0.4c1.4-0.1,2.8-0.7,4.1-1.2C418.5,220.9,420.1,220.3,421.7,220.3z"/>
	</g>
	<g>
		<path class="st0" d="M309.9,215c-1.9-2.3-3.8-4.3-6.9-4.4c-0.1,0-0.1,0-0.2,0c-0.1,0-0.2,0-0.2-0.1c-0.2-0.2-0.4-0.2-0.6-0.2
			c-0.1,0-0.1,0-0.2,0.1c0,0-0.1,0-0.1,0c-0.1,0-0.2,0-0.3,0.1l-0.6,0.4c-0.4,0.3-0.8,0.5-1.2,0.8c-0.8,0.5-1.9,0.8-3.1,0.8
			c-1.8,0-3.5-0.7-4.4-1.8c0,0,0,0,0,0c-0.1-0.1-0.2-0.3-0.3-0.5c0-0.3,0-0.7,0-1.1c0.1-1,0.1-2.1-1.1-2.8l-1.5,0
			c-0.5-0.1-1-0.3-1.4-0.6c-0.6-0.3-1.3-0.6-2-0.6c-0.1,0-0.1,0-0.2,0l-0.5-0.5c-0.4-0.3-0.9-0.4-1.3-0.4c-0.8,0-1.5,0.5-2.2,0.9
			l-4.3,0.2c-0.1,0-0.3,0-0.4,0c-0.2,0-0.3,0-0.5,0c-0.3,0-0.7,0.1-1,0.5c-0.1,0-0.2,0.1-0.3,0.1c0,0,0,0-0.1,0c-2-0.1-4-0.8-6-2.1
			c-1.3-0.8-1.9-1.6-1.9-2.4c0-0.5,0.3-0.9,0.7-1.5c0.3-0.3,0.7-0.6,1.1-0.9c0,0,0-0.1,0-0.1c0,0,0,0,0,0l0.7,0
			c0.3,0.3,0.5,0.5,0.7,0.8c0.8,0.6,1.7,0.9,2.7,0.9c1,0,2-0.3,3.2-0.7l0.9-0.6c0.7-0.2,0.8-0.7,0.9-1.3c0-0.1,0-0.1,0-0.2
			c0,0,0,0,0,0l1.4,0l0.9-0.4c0.1,0,0.2-0.1,0.3-0.1c1.3-0.5,2.4-0.7,3.4-0.7c0.2,0,0.5,0,0.7,0c1.1-0.4,1.7-0.9,1.8-1.5
			c0.1-0.6-0.3-1.2-1.1-1.9c-0.2-0.2-0.5-0.2-0.8-0.2l-0.4,0c-0.4,0-0.7-0.1-0.9-0.5c-0.2-0.2-0.5-0.4-0.7-0.4c-0.4,0-0.7,0.3-1,0.6
			c-1.5,0.3-2.9,0.4-4.3,0.4l-2.2,0c-0.7,0-1.3,0-2,0.1c-0.5,0-1,0-1.5,0l-1.5,0c-1.3,0-2.9,0.1-4.4,0.7l-0.6,0.6
			c-0.6,0.3-1.2,0.6-1.7,0.6c-0.5,0-0.8-0.2-1.1-0.7c-0.8-1.1-1.7-1.2-2.4-1.2c-0.4,0-0.8,0.1-1.3,0.1c-0.3-0.2-0.7-0.2-1.1-0.2
			c0,0-2.2-0.3-2.2-0.3c-0.8-1.4-2.1-1.6-3.3-1.6l-0.9,0c-0.3,0-0.6,0-0.9,0c-0.4-0.2-0.7-0.5-1.1-0.9c-0.7-0.6-1.5-1.3-2.4-1.3
			c-0.5,0-1.1,0.2-1.6,0.6l-1,0c-0.3,0.1-0.6,0.2-0.8,0.2c-0.9,0-1.3-0.8-1.6-1.6c-0.6-1.3-1.5-2.1-2.8-2.3l-3.2,0
			c-2.7,0.3-3.1,2.2-3.4,4.1c-0.1,0.5-0.2,1-0.3,1.4c-0.6,1.9-1.1,2.5-2.4,2.5c-0.6,0-1.3-0.1-2.4-0.5c-0.6-0.2-1.2-0.3-1.7-0.3
			c-0.3,0-0.7,0-1,0.1l0,0l-0.1-0.1l-0.1,0.1l0,0c-0.4,0-0.8-0.1-1.2-0.2c-0.5-0.1-1-0.2-1.5-0.2L221,193c-1-0.2-2.1-0.5-3.2-0.5
			c-0.3,0-0.6,0-0.8,0.1l-0.5,0c-0.3-0.1-0.5-0.1-0.8-0.1c-0.6,0-1.3,0.2-1.9,0.4c-0.6,0.2-1.3,0.4-1.9,0.4c-0.6,0-1.2-0.2-1.7-0.6
			l-0.5-0.1c-0.4,0-0.7-0.1-1.1-0.2c-0.4-0.1-0.8-0.1-1.1-0.2c-2.4-0.3-4.6-0.6-5.1-4.3c-0.2-1.7-2.1-4.3-4.5-4.3
			c-0.2,0-0.4,0-0.7,0.1c-0.8,0.2-1.5,0.2-2.3,0.2c-1.9,0-3.7-0.5-5.4-1c-0.7-0.2-1.4-0.4-2.1-0.5c-0.3-0.3-0.6-0.6-0.9-1
			c-0.7-0.9-1.5-1.7-2.7-2c-0.1,0-0.1,0-0.2,0c-0.2,0-0.4-0.1-0.6-0.1c-0.4-0.1-0.8-0.2-1.2-0.4c-0.6-0.2-1.3-0.5-1.8-0.5
			c-1,0-1.6,0.8-1.8,2.4c-0.6,0.3-1.1,0.5-1.8,0.5c-0.4,0-0.9-0.1-1.4-0.2c-0.2-0.1-0.3-0.1-0.5-0.2c0,0,0,0,0,0
			c-0.4-0.1-0.9-0.3-1.3-0.4c-1.5-0.5-3-1-4.6-1c-0.6,0-1.1,0.1-1.6,0.2c-0.2,0.1-0.3,0.1-0.5,0.1c-0.3,0-0.5-0.1-0.9-0.5l-0.2-0.8
			c-0.1,0-0.2-0.1-0.4-0.1c-0.2-0.1-0.4-0.1-0.6-0.1c-0.3,0-0.5,0.1-0.7,0.4l-0.4,0c-2.2,1.4-2.9,3.6-3.2,5.8
			c-0.2,0.2,0,0.5,0.2,0.9c-0.1,0.3-0.1,0.5-0.1,0.8c-0.1,0.1-0.2,0.1-0.3,0.1c-0.5-0.2-0.9-0.3-1.3-0.3c-0.4,0-0.7,0.1-1,0.3
			c0,0,0,0,0,0c-0.5,0.4-0.9,1-1.2,1.9c-0.2,0.9-0.5,2-0.6,3.1v0.6c-0.1,0-0.1,0.1-0.2,0.1c-0.2,0-0.4-0.4-0.6-0.7
			c-0.2-0.4-0.4-0.7-0.8-0.7c0,0-0.3,0-0.3,0c-0.2,0-0.5,0-0.6-0.2c-0.1-0.2-0.1-0.5,0.1-0.9c0.2-0.4,0.1-0.8-0.1-1.2
			c-0.3-0.5-0.9-0.8-1.2-0.8c-0.7,0-1.2,0.6-1.7,1.2c-0.2,0.3-0.4,0.5-0.7,0.8c-0.6,0.6-0.4,0.9-0.1,1.3c0.1,0.1,0.2,0.3,0.3,0.4
			c1.2,2.1,3,3.1,5.8,3.1c0.3,0,0.5,0,0.8,0c0.4,0,0.8,0,1.1,0c0.8,0,1.7,0,2.5-0.1c0.4,0,0.8-0.1,1.1-0.1c1.9,0,3.8,0.5,6.1,1.7
			c0.9,0.4,1.7,0.9,1.9,1.7c0.1,0.5-0.1,1-0.7,1.7c-0.8,0.9-0.1,1.6,0.4,2.1c1.3,1.2,2.6,1.8,4.2,1.8c0,0,13,1.5,13,1.5l0.5,0.5
			c0.4,0.2,0.8,0.5,1.2,0.8c0.4,0.3,0.7,0.5,1.2,0.7c0.3,0.2,0.6,0.3,0.9,0.4c0,0,0,0,0,0c0,0.1,0.1,0.2,0.1,0.3c0,0,0,0,0,0
			c0.1,0.1,0.2,0.2,0.3,0.3c0,0,0.1,0,0.1,0c0,0,0.1,0.1,0.1,0.1c0.3,0,0.6-0.1,1-0.3c0.2,0,0.3-0.1,0.5-0.1c0.4,0,0.9,0.2,1.3,0.3
			c0.3,0.1,0.6,0.2,0.9,0.3l0.5,0.6c0.6,0.2,1.1,0.5,1.7,0.8c0.8,0.4,1.6,0.9,2.5,0.9c0.6,0,1.1-0.2,1.7-0.5
			c0.1-0.2,0.2-0.5,0.2-0.8l1.8-1.4c0.2,0,0.3,0,0.5,0l0.8,0c0.2,0,0.6,0,0.8-0.1c0.2,0.1,0.3,0.1,0.6,0.2c0.3,0,0.6,0.1,0.9,0.1
			c0.4,0,0.7,0,1.1-0.1c0.2-0.1,0.3-0.1,0.5-0.2l0.2,0.1c0.7-0.1,1.5-0.2,2.2-0.2c2.2,0,4.3,0.5,6.4,1c1.5,0.3,3.1,0.7,4.6,0.9
			c1.3,0.5,2.5,1.2,3.8,1.9c1.8,1,3.8,2,5.8,2.6c0.1,0,0.2,0,0.3,0.1c0.4,0.1,0.8,0.2,1.3,0.3c0.3,0.6,0.7,0.8,1.3,0.8
			c0.1,0,0.2,0,0.4,0c0,0,0.2-0.1,0.2-0.1c0.9,0.8,1.9,1.2,3.1,1.2c0.3,0,0.6,0,0.8-0.1c0.6-0.1,1.3-0.2,2.1-0.2
			c0.8,0,1.6,0.1,2.3,0.3l0.8,0.1c0.5,0.4,1.2,0.5,1.8,0.5c0.8,0,1.6,0.1,2.1,0.8c0.2,0.3,0.5,0.5,0.7,0.5c0,0,0,0,0,0
			c0.1,0,0.1,0.1,0.2,0.1c0.4,0,0.8-0.2,1.1-0.4c0.4-1.1,1.2-1.2,1.8-1.2c0.3,0,0.5,0,0.8,0.1c0.3,0,0.5,0.1,0.8,0.1
			c0.1,0,0.2,0,0.3,0l1.6,0.1c0.5,0.1,1,0.3,1.6,0.4c0.9,0.3,1.8,0.6,2.8,0.6c0.1,0,0.3,0,0.4,0l2.6,0.6c0.1,0.1,0.3,0.1,0.4,0.2
			c0.1,0.1,0.2,0.1,0.3,0.2c0.3,0.1,0.5,0.2,0.8,0.3c0.2,0,0.4,0.1,0.6,0.1c0.1,0,0.2,0.1,0.4,0.1c0,0,0,0,0,0
			c0.1-0.1,0.3-0.1,0.4-0.2c0.3,0.1,0.6,0.1,0.9,0.1c1.1,0,2.2-0.5,3.3-1c0.1,0,0.3,0,0.3-0.1c0.2,0,0.4,0,0.6,0
			c0.3,0,0.6,0,0.8-0.1c0.2,0,0.5-0.1,0.7-0.2c0.5-0.1,1-0.3,1.6-0.3c0.4,0,0.7,0.1,1.1,0.2l0.6,0.4l0.3,0.3c0.5,0.4,1,0.8,1.5,1.1
			c0.1,0,0.1,0.1,0.2,0.1c0.2,0.1,0.4,0.2,0.6,0.3c0.2,0.1,0.5,0.1,0.7,0.1c0.1,0,0.1,0,0.2,0l0.2,0.2l0.7,0.2
			c0.1,0.1,0.3,0.3,0.4,0.6c0.5,0.5,1.2,0.8,1.8,1c0.2,0.1,0.4,0.1,0.6,0.2c1.2,0.5,2.5,0.7,4,0.7l0.5,0c0.8,0,1.7,0.1,2.4,0.7
			c0.8,0.6,1.6,0.9,2.6,0.9c0.1,0,0.2,0,0.4,0c0,0,0,0,0,0c0.3,0,0.7,0,1-0.1c0.3-0.1,0.5-0.3,0.7-0.5c0.5-0.9,0.4-1.7-0.2-2.7
			c-0.2-0.2-0.4-0.4-0.5-0.6c-0.5-0.4-1.2-0.8-1.9-1c-0.1,0-0.3-0.1-0.4-0.1l-0.5-1.1l0,0l0.2-0.1c0.3-0.3,0.5-0.4,0.8-0.4
			c0.3,0,0.6,0.2,1,0.6c0.7,0.7,1.4,1.1,2.3,1.2c2,0.2,3.8,1.1,5.3,2c0.1,0,0.2,0.1,0.3,0.1c0.1,0.3,0.1,0.6,0.1,0.8
			c-0.4,0.4-0.8,0.9-0.9,1.5c0.4,1.4,1.2,1.5,1.9,1.5c0.4,0,0.7-0.1,1.1-0.1c0.3,0,0.6-0.1,0.9-0.1c1-0.4,1.1-1.2,1.3-2l0.1-0.3
			c0.2-0.4,0.4-0.6,0.5-0.6c0.1,0,0.3,0.2,0.4,0.4c0.1,0.2,0.2,0.3,0.3,0.4c0.1,0,0.1,0.1,0.2,0.1c0.3,0.9,1,1.4,1.9,1.4l0.2,0
			c0.9-0.1,1-0.8,1.1-1.4c0-0.2,0.1-0.4,0.1-0.6l-0.1-0.2c-0.2-0.4-0.3-0.8-0.8-0.8h0c-0.4-0.8,0.2-1.1,0.7-1.4
			c0.2-0.1,0.4-0.2,0.5-0.3l0.2-0.2c0.9-0.7,1.9-1.5,1-3L309.9,215z M174.7,181.2C174.7,181.2,174.7,181.2,174.7,181.2
			c0,0-0.1-0.1-0.2-0.2C174.6,181.1,174.6,181.1,174.7,181.2z"/>
	</g>
	<g>
		<path class="st0" d="M597.8,183.9c-0.7-0.3-0.7-1.4-0.7-2.4c0-2.1-0.2-3.8-0.7-5.4c-0.3-0.6-0.2-1.2-0.2-1.8
			c0.1-0.7,0.1-1.4-0.4-2.1c-0.9-0.8-1.7-1.4-2.3-1.4c-0.1,0-0.1,0-0.2,0.1c0,0,0,0,0,0c-0.6,0.1-1.1,0.9-1.7,2.3
			c-0.5,1.1-1.3,1.7-2.6,2c-0.7,0.1-1.1,0.6-1.2,1.1c-0.1,0.4,0.1,0.9,0.5,1.1c0.6,0.3,1,0.7,1,1c0,0.5-0.6,0.8-1.2,1.1
			c-2.2,1.3-2.8,2.9-1.9,5.6c0.6,1.9-0.1,4-1.8,5.4c-0.5,1.9-0.4,2.2,2,3.7c0.2,0.1,0.4,0.2,0.6,0.3c0.3,0.2,0.6,0.3,1,0.3
			c0.2,0,0.3,0,0.5-0.1l1.4-0.8c0.1,0,0.2-0.1,0.3-0.2c1.8-1,2.7-2.7,3.5-4.4l0.3-0.1c0.1-0.1,0.2-0.1,0.4-0.2c0,0,0.1,0,0.1-0.1
			c0,0.1,0,0.3,0,0.4c0,0.4,0.1,0.7-0.3,1c-0.5,0.5-0.7,1.1-0.7,1.6c0.1,0.4,0.3,0.6,0.7,0.8c0.2,0.1,0.5,0.2,0.7,0.2
			c0.6,0,0.9-0.6,1.3-1.1c0.1-0.3,0.3-0.5,0.5-0.7c0.3-0.2,0.5-0.5,0.5-0.8c0-0.3-0.2-0.6-0.5-1c-0.2-0.1-0.2-0.2-0.2-0.3
			c-0.2-0.6-0.5-0.9-0.8-0.9c0,0,0,0,0,0c0,0,0,0,0,0c0.3-0.2,0.5-0.2,0.8-0.2c0.1,0,0.6,0,0.7,0c0.3,0,0.6,0,0.9-0.3
			c0.1-0.2,0.2-0.3,0.4-0.4c0.5-0.6,1-1.3,0.9-1.9C599.1,184.8,598.7,184.3,597.8,183.9z"/>
	</g>
	<g>
		<path class="st0" d="M292.4,153.2C292.4,153.2,292.4,153.2,292.4,153.2C292.4,153.2,292.4,153.2,292.4,153.2L292.4,153.2z"/>
	</g>
	<g>
		<path class="st0" d="M555.7,198.3c-0.2-0.7-0.9-1.2-1.8-1.7c-0.6-0.3-1.4-0.5-2.2-0.5c-0.2,0-0.3,0-0.5,0.1c-0.1,0-0.1,0-0.2,0
			c-0.9,0.1-1.7,0.4-2.4,0.9c-0.1,0-0.1,0.1-0.2,0.1c-0.2,0.2-0.4,0.3-0.6,0.5c0,0,0,0.1-0.1,0.1c-0.2,0.2-0.4,0.4-0.5,0.6
			c-1.2,2.1-2.6,3.1-4.6,3.1c-0.2,0-0.5,0-0.7,0c-0.1,0-0.3,0-0.4,0c-0.3,0-0.7,0-1.2,0.1c-0.7,0.2-1.1,0.7-1,1.4
			c0.1,0.5,0.4,0.8,0.9,0.8c0.1,0,0.2,0,0.3,0c0.3-0.1,0.6-0.1,0.9-0.1c0.3,0,0.6,0.1,0.7,0.2c0.2,0.3,0,0.8-0.2,1.3
			c-0.1,0.2-0.2,0.4-0.2,0.6c-0.1,0.5-0.4,1-0.7,1.4c-0.7,1-1.4,2.1,0,3.6c0,0.3-0.5,0.6-0.8,0.8l-2.4,1.6c-0.2,0.1-0.4,0.3-0.6,0.4
			c-1,0.6-2.1,1.3-1.9,2.9c0.2,0.1,0.4,0.1,0.7,0.1c0.6,0,1.1-0.3,1.6-0.6c0.4-0.3,0.9-0.6,1.4-0.6c1.9,0,3.9-0.3,4.8-2.7
			c0.2-0.3,0.5-0.4,0.8-0.6c0.4-0.2,0.8-0.4,0.9-0.9l2.2-3.7c2.2-1.9,3.9-3.8,2.8-6.9c-0.1-0.2-0.1-0.3,0-0.4
			c0.1-0.2,0.4-0.3,0.8-0.3c0.2,0,0.4,0,0.7-0.1c0.2,0,0.4-0.1,0.7-0.1c0.3,0,0.6,0.1,0.9,0.3c1-0.1,2.2-0.1,2.3-1.3
			c0-0.1,0-0.2,0-0.3C555.7,198.4,555.7,198.4,555.7,198.3z"/>
	</g>
	<g>
		<path class="st0" d="M362.6,221.1c0-0.3,0-0.6-0.1-0.8c-0.3-0.7-0.9-1.1-1.4-1.3l-0.7-0.5c-0.1-1,0.2-2,0.4-3
			c0.1-0.2,0.3-0.4,0.5-0.6c0.4-0.4,0.9-0.8,0.2-1.7c-0.1-0.2-0.2-0.4-0.6-0.4c0,0-0.2,0-0.2,0c-1,0-1.8,0.5-2.6,1
			c-0.5,0.4-1.1,0.7-1.7,0.9c-0.3,0-0.5,0.1-0.9,0.1c0,0-0.2,0-0.2,0c-0.1,0-0.2,0-0.3,0.1l-2.2-0.5c-0.5-0.5-0.9-0.7-1.3-0.7
			c-0.6,0-1.1,0.5-1.6,0.9c-0.3,0.3-0.5,0.5-0.8,0.7c-1.7-0.3-2-1.6-2.4-3c-0.1-0.2-0.1-0.5-0.2-0.7c-0.3-0.1-0.6-0.2-1-0.3
			c0,0,0,0,0,0c-0.6-0.2-1.2-0.3-1.8-0.3c-0.1,0-0.1,0-0.2,0c-0.2,0-0.4-0.1-0.6-0.1c-1.5,0-2.7,0.4-3.9,1.3
			c-0.4,0.3-0.9,0.3-1.2,0.3c-0.2,0-0.4,0-0.7,0c-0.2,0-0.4,0-0.6,0c-0.4,0-0.8,0.1-0.9,0.5c-0.3,2.4-1,2.8-2.6,2.8
			c-0.4,0-0.9,0-1.4-0.1l-0.3,0c-1.5,0-4.1,1.5-5.8,3.3c-1.1,1-1.2,2.4-1.4,3.7c-0.1,0.8-0.2,1.6-0.5,2.4c0,0.7,0.1,2,1.4,2.4
			c0.5,0.1,0.9,0.3,1.4,0.4c1.4,0.4,2.9,0.8,4.4,0.8c0.2,0,0.4,0,0.6-0.1c0.1,0,0.3,0,0.4,0c0.3,0,0.5,0,0.8-0.1
			c1.2-0.3,2.4-0.6,3.6-0.9c1.9-0.5,3.9-1.1,5.9-1.3c0.3-0.3,0.7-0.7,1-1c0.5-0.2,1.1-0.2,1.6-0.3c0.9-0.1,1.8-0.2,2.6-0.8
			c0.1-0.1,0.2-0.2,0.3-0.3c0.1-0.1,0.1-0.1,0.2-0.2c0.1,0.1,0.2,0.2,0.4,0.3c0.2,0.1,0.3,0.3,0.5,0.4c0.7,0.5,1.3,1.1,2.2,1.1
			c0.2,0,0.4,0,0.7-0.1c1.3-0.4,2.7-0.5,4.1-0.7c0.8-0.1,1.7-0.1,2.5-0.3C360.1,224.2,362.3,223.8,362.6,221.1z"/>
	</g>
	<g>
		<path class="st0" d="M476,205l-0.4-0.2c-0.7-1-1.6-1.5-2.6-1.5c-0.8,0-1.6,0.3-2.8,1c-1.3,0.8-2.4,1.1-3.3,1.1
			c-1,0-1.8-0.3-2.7-1.1c0,0,0,0,0,0c0,0-0.1,0.1-0.1,0.1c0,0-0.1,0.1-0.1,0.1c-0.6,0.9-1.1,1.8-2.2,2.3c-1.1,0.6-1.7,2-1.6,3.7
			c0.1,0.8,0.3,1.2,0.8,1.2c0.2,0,0.5-0.1,0.8-0.3c2-1.1,4-1.3,6-1.3c0.6,0,1.1,0,1.7,0l1.2,0c0.3,0.1,0.5,0.2,0.7,0.2
			c0.6,0,1-0.4,1.4-0.9c0.7-1,1.6-1.5,2.7-1.6l0.9-0.6c0.3-0.4,0.4-0.7,0.4-0.9c0,0,0,0,0-0.1c0-0.1,0-0.2,0-0.2
			C477.1,205.7,476.6,205.4,476,205z"/>
	</g>
	<g>
		<path class="st0" d="M188.1,139.2c0.1,0.2,0.3,0.3,0.5,0.3c0.5,0,1.1-0.4,1.6-0.8l0.2-0.2c0.3,0,0.5-0.2,0.8-0.3
			c0.2-0.2,0.5-0.3,0.7-0.3c0.1,0,0.3,0,0.4,0.1c0.3,1.4,0.9,1.7,1.4,1.7c0.5,0,1.1-0.3,1.6-1c1.7-2.1,2.7-4.4,2.9-6.7
			c0-0.2,0-0.3-0.1-0.5l-0.9-0.6l-0.2-0.1l-0.2-0.1c0,0,0-0.2,0-0.2c-0.2-0.7-0.6-1.1-1.2-1.2l-2-1.1c-1-0.3-2-0.4-2.9-0.4
			c-0.9,0-1.8,0.1-2.7,0.4c-0.6,1.1-0.8,2.4-0.9,3.6c-0.2,1.2-0.3,2.5-0.9,3.6c-0.5,0.9,0.4,2,1.2,3
			C187.7,138.6,187.9,138.9,188.1,139.2z"/>
	</g>
	<g>
		<path class="st0" d="M141.4,85.9c-0.3-0.1-0.6-0.3-0.8-0.3c-0.2,0-0.3,0.1-0.5,0.2c-0.2,0.2-0.3,0.4-0.4,0.7
			c0,0.3,0.1,0.6,0.3,0.7c0.9,0.9,0.4,1.5-0.2,2.2c-0.7,0.8-0.8,1.7-0.9,2.7c-0.3,0.6,0,1,0.4,1.4c0.2,0.3,0.4,0.5,0.5,0.9
			c0,0,0,0.1,0,0.1c-0.2,0-0.5-0.1-0.7-0.1c-0.2,0-0.4,0.1-0.6,0.1c-0.1,0-0.1,0-0.2,0c-0.2,0-0.3,0.1-0.5,0.2
			c-0.1,0.1-0.2,0.1-0.3,0.2c-0.2,0.1-0.3,0.3-0.5,0.5c-0.1,0.1-0.1,0.2-0.2,0.2c-0.2,0.2-0.3,0.5-0.4,0.8c0,0.1,0,0.1-0.1,0.2
			c0,0.2-0.1,0.3-0.1,0.5c-0.1,0.9,0.6,1,1.2,1.1c0.5,0.1,0.9,0.2,1.2,0.5c0.1,0.1,0.1,0.1,0.2,0.1c0.2,0.1,0.4,0.2,0.6,0.4
			c0.4,0.2,0.7,0.5,1.1,0.5c0.3,0,0.6-0.1,0.9-0.4l0.2-0.2c0.8-0.7,1.6-1.5,1-2.9c-0.3-0.7-0.3-1.2-0.1-1.5c0.2-0.3,0.5-0.4,1-0.4
			c0.3,0,0.6,0,1,0.1c0.4,0.1,0.8,0.3,1.1,0.5c0.5,0.3,1.1,0.5,1.7,0.5c0.1,0,0.3,0,0.4-0.1c0.1-0.9,0.1-1.9-0.4-2.5
			c-0.1-0.1-0.2-0.2-0.3-0.2c0,0-0.1-0.1-0.1-0.1c-0.3-0.2-0.7-0.3-1.1-0.4c-1.1-0.3-1.3-1.2-1.4-2.2
			C144.3,88.1,143.3,86.8,141.4,85.9z"/>
	</g>
	<g>
		<path class="st0" d="M498.7,60.5C498.7,60.5,498.8,60.5,498.7,60.5c4.2,0,6.7-2.6,6.8-7c0-1.3-0.6-2.9-1.4-3.7
			c-0.4-0.4-0.8-0.6-1.2-0.6c-0.1,0-0.3,0-0.4,0.1c-2.2,0.9-4.1,3-5,5.3c-0.5,1.3-0.8,3.4,0.3,5.5C498.1,60.2,498.3,60.5,498.7,60.5
			z"/>
	</g>
	<g>
		<path class="st0" d="M486,110.7c-0.3,0-0.6,0-0.8,0.4c-0.7,1.1-0.7,2.2,0,3.4l0.1,0.8c0.4,0.8,0.8,1.6,1.5,1.8c0,0,0,0,0.1,0
			c0.1,0,0.2,0.1,0.3,0.1c0.4,0,0.8-0.2,1.3-0.5c0.9-0.5,1.8-0.6,2.5-0.6c0.4,0,0.8,0,1.2,0c0.4,0,0.8,0,1.2,0c0.5,0,0.9,0,1.2-0.1
			c0.1,0,0.1,0,0.2,0c0.2,0,0.5,0.1,0.7,0.1c0.3,0.1,0.5,0.1,0.7,0.1c0.5,0,0.8-0.3,0.9-1c0-0.2,0-0.3,0-0.5c0-0.1,0-0.2,0-0.3
			c0-0.3,0-0.6-0.1-0.8c0-0.2-0.1-0.4-0.2-0.6c-0.1-0.1-0.1-0.3-0.2-0.4c-0.1-0.1-0.2-0.2-0.3-0.3c-0.2-0.2-0.3-0.3-0.5-0.4
			c-0.1,0-0.2-0.1-0.2-0.1c-0.2-0.1-0.3-0.2-0.5-0.2c-1.2-0.4-2.2-0.9-3-1.6c-0.2-0.4-0.6-0.7-1.1-0.9c-0.1,0-0.2,0-0.3,0l-0.3-0.5
			l-0.7-0.5l-0.2-0.6c-0.5-0.4-1.1-1-1.8-1c-0.4,0-0.9,0.2-1.3,0.6c-0.1,0.1-0.1,0.2-0.1,0.3c0,0,0,0.1-0.1,0.1
			c0,0.1-0.1,0.1-0.1,0.2l-0.5,0.4c-0.4,0.6-0.1,1,0.1,1.5c0.2,0.3,0.4,0.6,0.4,1c-0.1,0-0.1,0-0.3,0
			C486.1,110.7,486.1,110.7,486,110.7z"/>
	</g>
	<g>
		<path class="st0" d="M531,95.4c0.1,0,0.2,0,0.3,0c0.1,0,0.2-0.1,0.3-0.1c0,0,0,0,0,0c0.1,0.3-0.1,0.6-0.2,0.9
			c-0.2,0.3-0.3,0.7-0.2,1.1l0.9,0.8l0.6,0.5c0.5,0.2,0.9,0.3,1.4,0.3c1.4,0,2.6-0.8,3.8-1.5l0.6-0.4c0.2,0.2,0.4,0.3,0.7,0.4
			c0.6,0,1.2-0.2,1.7-0.3l0.5-0.1c0.4-0.2,0.8-0.2,1.2-0.2c0.7-0.1,1.5-0.2,2-1c0-0.1,0.1-0.2,0.1-0.3l0.2-0.1
			c0.6-0.3,1.1-0.6,1.2-1.5l-1.1-1.2l-0.7-0.9l-2.2-1.6c-0.2,0.1-0.5,0.1-0.7,0.1c-0.5,0-1.1-0.2-1.6-0.4c-0.5-0.2-1-0.4-1.6-0.4
			c-0.1,0-0.1,0-0.2,0c-0.5-0.1-1-0.1-1.5-0.1c-1.7,0-3.3,0.5-4.9,1c-0.9,0.3-1.7,0.5-2.6,0.7c-0.7,0.1-1.1,0.5-1.3,1
			c-0.2,0.7,0,1.5,0.7,2.3C529.2,95,530,95.4,531,95.4z"/>
	</g>
	<g>
		<path class="st0" d="M131.3,74.6l0.2,0.1c1.6,1,3.2,2.1,3.9,4.1c0,0,0,0,0,0c0,0,0,0,0,0c1.7-0.2,2.7-1,3-2.4c0,0,0-0.1,0-0.1
			c0.3,0.2,0.5,0.4,0.7,0.6c0.3,0.3,0.6,0.7,1.2,0.7c0.3,0,0.7,0,0.9,0c2.2,0,2.6-0.9,2.8-4.2c-0.4-0.6-0.9-1.2-1.6-1.5
			c-0.9-0.8-1.8-0.9-2.6-0.9c-0.3,0-0.6,0-1,0c-0.3,0-0.6,0-1,0c-0.1,0-0.3,0-0.4,0c-0.2,0-0.3,0-0.5,0c-0.4,0-0.7,0-1.1-0.1
			c-0.4,0-0.7-0.1-1.1-0.1c-0.9,0-1.5,0.3-2,0.9c-0.2,0.5-0.6,0.5-1.1,0.6c-0.4,0-0.9,0.1-1.1,0.5c-0.2,0.3-0.2,0.6-0.2,0.9
			C130.6,74.1,130.9,74.4,131.3,74.6z"/>
	</g>
	<g>
		<path class="st0" d="M520.3,118.3c0.1,0.2,0.2,0.4,0.3,0.5c0,0,0,0,0,0c0.1,0.1,0.2,0.2,0.3,0.3c1.2,0.9,2.7,1.9,4.2,2.7
			c0.4,0.2,0.9,0.3,1.4,0.3c2,0,4.8-1.1,4.9-2.3c0.2-1.7,0.4-3.4-1-4.8c-0.1-0.1-0.3-0.2-0.4-0.3c-0.2-0.2-0.5-0.3-0.8-0.4
			c0,0,0,0,0,0c-0.1,0-0.2-0.1-0.2-0.1c-0.2,0-0.4,0.1-0.7,0.2c-0.9,0.6-2.1,1.2-3.5,1.2c-0.1,0-0.6,0-0.7,0c-1.1,0-2.1,0.4-3.1,1.2
			c-0.5,0.4-0.8,0.9-0.8,1.3C520.2,118.1,520.2,118.1,520.3,118.3C520.3,118.2,520.3,118.2,520.3,118.3z"/>
	</g>
	<g>
		<path class="st0" d="M481.7,102c0,0,0,0.1,0.3,0.2l0.2,0.1c1.3,0.8,2,1.2,2.4,1.2c0.4,0,0.5-0.4,0.5-1.2c0-0.2,0-0.4,0-0.6
			c0.6,1.6,2.1,1.9,3.5,2.2c0.5,0.1,1,0.2,1.4,0.3c0.1,0,0.3,0,0.3-0.1c0.1,0.1,0.3,0.1,0.4,0.2c0.2,0,0.4,0.1,0.6,0.1
			c0.7,0,1.1-0.3,1.4-1.1l0.6-0.9c0.3-0.1,0.5-0.3,0.8-0.4c0.4-0.3,0.8-0.5,1.2-0.5c0.3,0,0.6,0.1,0.9,0.4c0.2,0.3,0.5,0.4,0.8,0.5
			c0.4,0.2,0.9,0.3,1,1c0,0.1,0.1,0.1,0.1,0.2c0,0.1,0.1,0.1,0.1,0.2c0.1,0.1,0.2,0.2,0.3,0.2c0.1,0,0.1,0,0.2,0.1
			c0.1,0,0.1,0.1,0.2,0.1c0.2,0,0.5,0,0.7-0.1c0.2,0,0.4-0.1,0.6-0.1c0.5,0,0.9-0.3,0.9-0.8c0.1-0.7-0.4-1.1-0.9-1.3
			c-0.1-0.1-0.2-0.1-0.3-0.2l-1.5-1l-4.3-7.3c0.1-0.7-0.3-1.3-0.6-1.8c-0.1-0.2-0.3-0.4-0.4-0.7c0-0.1-0.1-0.2-0.1-0.3l0-0.8
			c1-1.1,1-2.4,1.1-3.7c0-0.6,0.1-1.1,0.1-1.7c0.2,0,0.3,0,0.5,0c0,0,0.1,0,0.1,0c0.7,0,1.3,0.2,1.9,0.3c1.6,0.4,3.2,0.7,4.8,1
			c0.7,0.1,1.3,0.2,1.9,0.3l1.2,0.8c0.4,0.2,0.8,0.2,1.3,0.3c0.6,0.1,1.2,0.1,1.6,0.6c0.2,0.2,0.5,0.4,0.7,0.4
			c0.2,0,0.3-0.1,0.4-0.2c0.3-0.3,0.1-0.6-0.1-0.9c-0.1-0.2-0.2-0.3-0.2-0.5l-3.1-2.1c0-0.2,0-0.4,0-0.5c0-0.5-0.1-1.1-0.5-1.6
			c0.1-0.4,0-0.7-0.2-1c-0.4-0.4-1-0.6-1.4-0.6c0,0-0.2,0-0.3,0c-0.7,0-1.3-0.3-1.9-0.7c-0.4-0.2-0.7-0.4-1.1-0.5
			c-0.6-0.2-1.2-0.4-1.1-1.2c0.1-0.7,0.7-0.9,1.3-1.1c5.7-2.1,5.9-2.6,6-8.6c0-1.4-0.1-2.2-0.6-2.6c-0.3-0.3-0.6-0.4-1.1-0.4
			c-0.4,0-0.8,0.1-1.4,0.3c-2.5,0.6-5.7,1.6-7.6,4.7c-0.2,0.4-0.3,0.7-0.3,1.1c0,0.1,0.1,0.2,0.1,0.2c0,0,0,0,0,0
			c-0.2,0-0.3,0.1-0.5,0.2c-0.2,0.2-0.4,0.3-0.6,0.5c0,0-0.1,0.1-0.1,0.1l0.1-0.1c0.1-0.1,0.2-0.3,0.2-0.4c0.1-0.1,0.1-0.3,0.2-0.4
			c0.2-0.4,0.4-0.7,0.4-1.2c1.3-2.4,1.2-5.3-0.3-7.1c-1.5-1.8-0.9-2.6,0.2-4c0.5-0.6,1.3-1.5,0.5-2.4c-0.3-0.3-0.7-0.5-1.2-0.5
			c-0.5,0-1,0.2-1.5,0.5c-2.2,1.4-3.7,3.1-4.6,5c-0.6,0.6-0.7,1.3-0.9,2c-0.1,0.6-0.3,1.2-0.7,1.7l-0.6,3.9
			c-2.2,2.6-2.1,3.6,0.1,5.9c1.1,1.1,1.3,2.4,0.6,4.1c-0.4,0.9-0.2,1.8-0.1,2.8l0.1,0.4c0.1,0.2,0.1,0.5,0.2,0.7
			c0.1,0.5,0.2,1,0.6,1.3c0.2,0.2,0.3,0.4,0.5,0.6l0.6,2.5l0.4,2.5c-0.9,0.5-1.2,1.3-1.4,2.2c-0.1,0.4-0.3,0.9-0.5,1.2
			c0,0.1-0.1,0.2-0.1,0.2c-0.1,0-0.2,0-0.3,0c-0.7,0-1.3-0.3-1.8-0.7c-0.6-0.3-1.2-0.7-1.9-0.7c-0.2,0-0.3,0-0.5,0.1
			c-1.3,0.6-2,1.4-2,2.5c0,1,0.3,2,0.6,2.9C481.6,99.3,482.1,100.6,481.7,102z M492.3,74.6c0.3-0.2,0.5-0.3,0.7-0.6
			c-0.1,0.3-0.2,0.6-0.2,0.9c-0.2,0.1-0.4,0.2-0.6,0.4c-0.2,0.2-0.4,0.4-0.7,0.4c-0.1,0-0.2,0-0.2,0c0,0,0,0,0,0
			C491.4,75.2,491.8,74.9,492.3,74.6z M493.5,73.3c-0.1,0.1-0.1,0.2-0.2,0.3c0-0.1,0-0.1,0-0.2C493.4,73.3,493.5,73.3,493.5,73.3z"
			/>
	</g>
	<g>
		<path class="st0" d="M616.5,113.7c-0.5,0-1,0.1-1.5,0.2c-1-0.2-2.1-0.2-3.2-0.3c-1.1-0.1-2.3-0.2-3.5-0.4c-0.2,0-0.4-0.1-0.6-0.1
			c-0.3-0.1-0.5-0.1-0.8-0.2c-0.7,0.8-1,1.4-0.8,1.9c0.2,0.5,0.8,0.9,1.9,1.1c0.6,0.1,1.2,0.2,1.8,0.2c1.2,0,2.4,0.1,3.5,1
			c1.8,1.2,3.9,1.7,5.9,2.1l0.9,0.2c0.6,0.1,1.1,0.2,1.6,0.2c1.2,0,2.1-0.4,2.9-1.2l2.7-0.4c0.1,0,0.3,0,0.4,0
			c0.5,0,0.9-0.1,1.2-0.3c0.4-0.3,0.6-0.6,0.5-0.8c0-0.1-0.1-0.1-0.1-0.1c0,0,0,0,0,0c-0.1-0.1-0.3-0.2-0.5-0.3
			c-0.3-0.1-0.5-0.2-0.6-0.4c-0.4-0.5-0.9-0.6-1.3-0.6c-0.2,0-0.4,0-0.6,0c-0.2,0-0.4,0-0.7,0l-0.8-0.5l-0.8-0.5
			c-0.4,0.1-0.9,0.2-1.4,0.2c-1,0-2.1-0.2-3.1-0.5C618.6,113.9,617.6,113.7,616.5,113.7z"/>
	</g>
	<g>
		<path class="st0" d="M459.8,116.5l-2.7-0.6c-0.7,0-1.4-0.3-2-0.7c-0.7-0.3-1.3-0.7-2.1-0.7c-0.3,0-0.7,0.1-1,0.2c0,0,0,0-0.1,0
			c0-0.1,0-0.3-0.1-0.5c-2.4-0.6-5.3-1.3-8.4-1.3c-0.6,0-1.2,0-1.7,0.1c-1.1,0.1-1.8,0.5-2.2,1.3c0,0.7-0.3,1.4-0.6,2.1
			c-0.4,1-0.8,2-0.5,3.1c0.1,1.2,0.9,1.5,1.6,1.7c0.1,0.2,0.2,0.3,0.3,0.3c0,0,0.1,0,0.1-0.1c0,0,0,0,0,0c0,0,0.1,0,0.1-0.1l0.2,0
			c1.4,0,2.6-0.5,3.8-1.1c1.1-0.5,2.1-0.9,3.3-1l1.2,1c0.2,0.2,0.4,0.3,0.5,0.3c0.2,0,0.4-0.1,0.5-0.3c0.6-0.5,1.4-0.8,2.2-0.8
			c0.2,0,0.5,0,0.7,0.1c1.5,0.3,2.9,0.5,4.2,0.5c1.5,0,2.8-0.2,4.2-0.6c0.1,0,0.2,0,0.3-0.1c-0.8,2.2,0.1,4,1,5.5l0.2,0.3
			c0.3,0.5,0.6,0.9,0.6,1.5l1,1.2c0.3,0.1,0.6,0.3,0.8,0.3c0.3,0,0.5-0.2,0.7-0.5c0.8-0.9,0.8-1.7,0.1-2.9c-1.1-1.9-1.4-2.8-1.1-3.6
			c0.3-0.8,1.3-1.4,2.9-2.1c0.2-0.1,0.4-0.2,0.6-0.4c0.2-0.1,0.3-0.2,0.5-0.3c0.5-0.3,0.8-0.6,0.8-0.9c0-0.3-0.3-0.6-0.8-0.8
			l-0.5-0.1c-1.7-0.5-3.4-1.1-5.1-1.1C462.2,115.4,461,115.8,459.8,116.5z"/>
	</g>
	<g>
		<path class="st0" d="M194.2,32.4c0.3,0.2,0.5,0.3,0.3,0.7c-0.6,0.6-0.9,1.1-0.8,1.6c0.2,0.6,1.1,1,1.8,1.2
			c0.2,0.1,0.4,0.1,0.6,0.1c0,0,0,0,0,0c0.7,0,1.4-0.3,2.2-0.7c1-0.6,1.5-1.3,1.7-2.1c0.6-1.1,0.6-2.2,0-3.2l-2.2-2.6
			c-0.4-1-0.9-1.6-1.4-1.6c-0.6,0-1.2,0.6-1.7,1.3l-0.2,0.2c-1.4,0.9-2,1.6-2.1,2.4c-0.1,0.7,0.4,1.5,1.6,2.6
			C194,32.3,194.1,32.3,194.2,32.4z"/>
	</g>
	<g>
		<path class="st0" d="M472.7,30.1C472.8,30.1,472.8,30.1,472.7,30.1c0.1,0.2,0.1,0.3,0.2,0.4c0.2,0.3,0.3,0.7,0.4,1.1
			c0.2,0.7,0.4,1.4,1,1.7c0,0,0,0,0,0c0.1,0.1,0.3,0.1,0.5,0.1c0.3,0,0.6-0.1,1-0.2c0.2-0.2,0.3-0.4,0.5-0.7c0.6-0.7,1.2-1.5,1-2.6
			c-0.1-0.9,0.3-1.6,0.7-2.2c0.2-0.3,0.3-0.6,0.5-0.8c0.6-1.3,0.6-2.6,0-3.7c-0.6-1.1-1.7-1.9-3.1-2.2c-0.4,0.2-0.8,0.4-0.9,0.8
			c-0.1,0.2,0,0.5,0.2,0.8l0.2,3.1c0,0.3,0.1,0.5,0.3,0.6c0.2,0.5,0.1,1-0.1,1.4c-0.2,0.3-0.5,0.5-0.9,0.6c-0.7,0.1-1.2,0.5-1.4,0.9
			c0,0.1,0,0.2,0,0.2c0,0,0,0.1,0,0.1C472.7,29.7,472.7,29.9,472.7,30.1z"/>
	</g>
	<g>
		<path class="st0" d="M428.5,110.2c0-0.7-0.5-1.5-1.6-2.3c-0.5-0.2-1-0.4-1.5-0.6c-1.5-0.7-3.1-1.4-4.8-1.4c-0.9,0-1.7,0.2-2.6,0.6
			c-0.1,0.2-0.2,0.4-0.3,0.5c-0.5,0.1-0.9,0.4-1.1,0.9c-0.1,0.5-0.4,0.9-0.6,1.3c-0.5,0.9-1.1,1.9-0.4,3.1c0.7,1.3,1.5,1.9,2.4,1.9
			c0.4,0,0.8-0.1,1.3-0.4c0.3-0.2,0.5-0.2,0.7-0.2c0.3,0,0.5,0.1,0.8,0.5c0.5,0.6,0.9,0.9,1.3,0.9c0.5,0,0.9-0.5,1.3-1.5l0.5-0.5
			c0.2,0,0.4,0,0.5,0c0.8,0,1.5-0.2,2.2-0.6C427.8,111.7,428.5,110.9,428.5,110.2z"/>
	</g>
	<g>
		<path class="st0" d="M465.3,136.2c-0.6,0-1.2,0.6-1.4,1.4c-0.9,1.8-0.7,3,0.6,4c2.4,3.6,6.3,5.3,9.8,6.6c0.3,0.1,0.5,0.2,0.8,0.2
			c1.1,0,2.3-0.8,3.5-1.5c0.6-0.4,1.3-0.8,1.9-1.1c1.6,0,2.9-0.1,3.8-1.6c0.2-1.2,0.5-2.5-0.1-3.7c-1-0.6-1.8-1.4-2.6-2.2
			c-1.1-1.1-2.2-2.2-3.7-2.7c-0.1-0.1-0.2-0.1-0.3-0.1c-0.1,0-0.1,0-0.2,0c0,0,0,0,0,0c-0.6-0.7-1.2-1.1-1.9-1.1
			c-0.3,0-0.5,0-0.8,0.1c-1.1,0.2-2.1,0.5-3.1,0.7c-1.8,0.5-3.7,1-5.7,1C465.7,136.3,465.6,136.2,465.3,136.2z"/>
	</g>
	<g>
		<path class="st0" d="M574,171.7C574,171.7,574,171.6,574,171.7c0.1-0.4,0.1-0.6,0.1-0.9c0-0.1,0-0.1,0-0.2c0-0.3-0.1-0.6-0.2-0.8
			c0,0,0-0.1,0-0.1c-0.1-0.2-0.1-0.3-0.2-0.5c-0.6-0.4-1.1-0.6-1.6-0.6c-0.7,0-1.2,0.4-1.5,1.3c-0.1,0.2-0.1,0.5-0.1,0.8
			c0,0.6,0,1.1-0.9,1.3c0,0,0,0,0,0l0,0c0,0,0,0,0,0l-0.1,0l-0.1-0.1l0,0l-0.1,0l0.1,0.2c0,0,0,0,0,0l0,0c0,0,0,0,0,0c0,0,0,0,0,0
			c0,0.1,0,0.3-0.1,0.4c-0.1,0.3-0.2,0.7-0.3,1c-0.2,0.6-0.3,1.2-0.7,1.7c-0.4,0.2-0.8,0.5-1.2,0.7c0,0,0,0,0,0l-0.1-0.4
			c-0.2-0.6-0.5-1.1-0.9-1.5c0,0,0,0-0.1-0.1c-0.2-0.1-0.4-0.2-0.7-0.3c-0.1,0-0.1,0-0.2,0c-0.1,0-0.2-0.1-0.3-0.1l-0.1,0
			c0,0-0.1,0-0.1,0c0,0,0,0.1,0,0.1l0,0l0,0.2c-0.6,0.3-0.8,0.8-0.9,1.3c0,0.1-0.1,0.3-0.1,0.4l1,1.7l0,0.4c0,0.7,0.1,1.4,0.7,1.9
			c0,0,0.1,0.1,0.1,0.1c0.1,0.1,0.1,0.1,0.2,0.2c0,0.2,0,0.3,0.1,0.5l0.5,0.1l0.5-0.2l0.8,0c0.1,0.1,0.2,0.2,0.3,0.2
			c0.1,0,0.3,0.1,0.4,0.1c0.1,0,0.3-0.1,0.4-0.1c0,0,0.1,0,0.1,0c0.1-0.1,0.2-0.1,0.3-0.2c0,0,0.1-0.1,0.1-0.1
			c0.1-0.1,0.2-0.2,0.3-0.3c0.3-0.7,0.6-1.4,0.5-2.1c0.3-0.5,0.7-1,1-1.4c0.7-1.1,1.5-2.2,2.4-3.2c0.1-0.2,0.2-0.3,0.3-0.5
			c0,0,0,0,0,0C573.8,172.3,573.9,172,574,171.7z"/>
	</g>
	<g>
		<path class="st0" d="M461,39.3c0.1,0.1,0.2,0.2,0.3,0.2c0,0,0.1,0.1,0.1,0.1c0.2,0.1,0.3,0.2,0.5,0.3c0.1,0,0.2,0,0.2,0.1
			c0.1,0,0.2,0.1,0.3,0.1c0.4,0,0.9-0.2,1.4-0.5c0.9-0.6,1-1.5,0.4-2.8c-0.2-0.2-0.4-0.5-0.6-0.7c-0.5-0.5-1-1-1.2-1.7
			c-0.4-1-1-1.6-1.7-1.6c-0.5,0-1,0.2-1.8,0.7c-0.3,0.7-0.6,1.7,0.1,2.7L461,39.3z"/>
	</g>
	<g>
		<path class="st0" d="M403.6,93.6c-0.7,0-1.3,0.3-1.8,0.6l-0.4,0.1c-1.2,0.7-2.5,1.7-3.4,3.2c-0.1,0.2-0.2,0.5-0.2,0.7l0.2,0.3
			l0.5,0.5c0,0,0,0,0,0c0,0,1-0.3,1.4-0.4c1.1-0.3,2.1-0.6,3.2-1c1.3-0.5,2.1-0.9,2.2-1.5c0.1-0.6-0.5-1.3-1.6-2.4
			C403.9,93.6,403.8,93.6,403.6,93.6z"/>
	</g>
	<g>
		<path class="st0" d="M302.8,196.6l0.1,0c0.6-0.4,1.3-0.5,2-0.5c1-0.1,2-0.2,2.7-1.2c0.2-0.3-0.2-0.9-0.4-1.2
			c-0.6-0.8-1.4-1.2-2.7-1.2c-0.1,0-0.3,0-0.4,0l-0.3,0c-0.9,0.1-2,0.2-2.2,1.6c-0.1,0.7,0.3,1.7,0.8,2.2
			C302.5,196.5,302.7,196.6,302.8,196.6z"/>
	</g>
	<g>
		<path class="st0" d="M497.3,213.9c0-0.1-0.1-0.2-0.1-0.3c-0.1-0.3-0.2-0.5-0.3-0.6c-0.6-0.2-1.2-0.4-1.7-0.7
			c-0.9-0.4-1.8-0.8-2.8-0.8c-0.2,0-0.4,0-0.6,0c-0.5,0.1-0.9,0.3-1,0.6c-0.1,0.3-0.1,0.7,0.2,1.1c0.6,1.2,1.8,1.6,2.9,2
			c0.4,0.2,0.8,0.3,1.2,0.5c0,0,0.1,0,0.1,0c0.4,0,1.4-0.6,1.9-1.4c0.1-0.1,0.1-0.2,0.1-0.3C497.2,214.1,497.2,214,497.3,213.9z"/>
	</g>
	<g>
		<path class="st0" d="M597.4,107.5c0.3,0.4,0.6,0.4,0.9,0.4c0.1,0,0.2,0,0.3,0c0.1,0,0.2,0,0.3,0c0.2,0,0.3,0,0.4,0.1l0,0
			c0.5,0,0.7-0.3,1-0.6c0.1-0.1,0.2-0.2,0.3-0.3c0.5-0.6,0.6-1.1,0.5-1.6c-0.1-0.6-0.6-1-1.6-1.5c-0.5-0.2-0.9-0.4-1.4-0.4
			c-0.9,0-1.6,0.6-2,1.8C596.1,106.3,596.5,107.1,597.4,107.5z"/>
	</g>
	<g>
		<path class="st0" d="M605.6,101.5l0.2,0.2c0.1,0.1,0.1,0.2,0.2,0.2c0.2,0.2,0.4,0.5,0.7,0.6c0,0,0,0,0,0c0.1,0,0.2,0,0.3,0
			c0,0,0.1,0,0.1,0c0.1,0.6,0.5,0.7,1,0.8c0.2,0.6,0.6,0.7,1.1,0.9c0.4,0.1,0.9,0.3,1,0.8c0.1,0.3,0.3,0.6,0.6,0.8
			c0.8,1.4,2.1,1.8,3.5,2.3c0.5,0.1,1,0.3,1.4,0.5c0.8,0.3,1.5,0.5,2.2,0.5c1.3,0,2.4-0.7,3.5-2.1c0-1-0.8-1.6-1.6-2.2
			c-0.2-0.1-0.4-0.2-0.5-0.2c-0.2,0-0.4,0.2-0.5,0.4c-0.2,0.2-0.4,0.3-0.6,0.3c-0.3,0-0.5-0.4-0.6-0.8c-0.2-0.9-0.7-1.6-1.2-2.3
			c-0.1-0.2-0.3-0.4-0.4-0.6c-0.1-0.2-0.3-0.3-0.6-0.4c0,0-0.2,0-0.2,0l-0.3-0.4l-0.6-0.7l-1-0.1l-1.6,0c-0.7-0.5-1.6-0.5-2.4-0.6
			c-0.8-0.1-1.5-0.2-2.1-0.5c-0.5-0.3-0.9-0.4-1.3-0.4c-0.7,0-1.1,0.4-1.5,1.5C604.7,100.7,605.2,101.1,605.6,101.5z"/>
	</g>
	<g>
		<path class="st0" d="M265.4,174.9c-0.9-0.9-1.7-1.3-2.6-1.3c-0.5,0-1.1,0.2-1.7,0.5c0.1,0.4,0.3,0.8,0.6,1.1
			c0.4,0.6,0.9,1.2,0.4,2.3c-0.1,0.3-0.1,0.5,0,0.7c0.3,0.4,1.2,0.5,1.9,0.5l0.2,0c0.4,0,0.7-0.1,0.9-0.3c0,0,0,0,0.1,0
			c0,0,0.1-0.1,0.2-0.1c0.2-0.2,0.2-0.6,0.1-1c-0.2-0.5-0.1-0.9,0-1.3C265.4,175.6,265.4,175.2,265.4,174.9z"/>
	</g>
	<g>
		<path class="st0" d="M505.9,196.3c-0.2-0.1-0.4-0.3-0.6-0.4c-0.4-0.3-0.8-0.6-1.2-0.6c-0.3,0-0.6,0.1-0.9,0.4
			c-0.6,0.6-1.3,1.4-1,2.5c0.3,1,1,1.6,1.9,1.7c0.1,0,0.2,0,0.2,0c0.8,0,1-0.6,1.2-1.2c0.1-0.3,0.2-0.7,0.5-0.9
			c0.3-0.3,0.4-0.6,0.4-0.9C506.4,196.8,506.2,196.5,505.9,196.3z"/>
	</g>
	<g>
		<path class="st0" d="M159.2,47.5c0.1,0,0.1,0,0.2,0c0.1,0,0.2-0.1,0.4-0.1c0,0,0.1,0,0.1,0c0.2-0.1,0.5-0.2,0.7-0.4
			c0,0,0,0,0.1-0.1c0.2-0.2,0.4-0.3,0.5-0.5c0,0,0.1-0.1,0.1-0.2c0.1-0.2,0.2-0.4,0.2-0.6c0-0.1,0-0.1,0-0.2c0-0.1,0.1-0.2,0.1-0.3
			c0-0.1-0.1-0.3-0.1-0.4c0,0,0,0,0,0c-0.2-0.8-1-1.4-2.3-1.9c-1.2,0.6-1.3,1.8-1.3,2.7C157.9,46.1,158,47.5,159.2,47.5z"/>
	</g>
	<g>
		<path class="st0" d="M516.7,92.7c0.4,0.3,0.9,0.7,1.3,1.1c0.2,0.1,0.3,0.2,0.5,0.2c0.2,0,0.3-0.1,0.5-0.2c0.4-0.4,0.1-0.8-0.2-1.2
			c-1.2-1.6-2.7-3-4.3-4.2l-0.9,0c0,0-0.1,0-0.1,0c0,0,0,0,0,0l0,0C513.8,90.5,515.3,91.6,516.7,92.7z"/>
	</g>
	<g>
		<path class="st0" d="M509.3,212.6c-0.2,0-0.5,0-0.7,0c-1.1,0-1.8,0.4-2.3,1.2c-0.2,0.3-0.2,0.5-0.2,0.7c0,0.1,0.1,0.1,0.2,0.2
			c0,0,0,0,0,0c0.2,0.1,0.4,0.3,0.6,0.4l0.2,0.1c0.5,0.5,1.2,0.8,2.2,0.9c0,0,0,0,0,0c0,0,0,0,0,0c1.2-0.2,2-0.9,1.9-1.8
			C511.2,213.2,510.2,212.7,509.3,212.6z"/>
	</g>
	<g>
		<path class="st0" d="M206,115.9c0.1,0,0.2,0,0.3,0c0.9-0.2,2.6-0.6,2.6-2c0-1.1-0.9-1.1-1.6-1.1c-0.3,0-0.5,0-0.7-0.1
			c-0.2,0-0.4,0-0.6,0c-0.5,0-0.9,0.1-1.1,0.4c-0.2,0.2-0.3,0.6-0.2,1.1C204.9,115.3,205.3,115.9,206,115.9z"/>
	</g>
	<g>
		<path class="st0" d="M385.4,200.5C385.4,200.5,385.5,200.5,385.4,200.5c0.1,0.1,0.2,0.2,0.2,0.2c0.4,0.1,0.9,0.3,1.3,0.6
			c0.6,0.3,1.3,0.7,2,0.7c0.4,0,0.8-0.1,1.2-0.3c0-0.2,0-0.3,0-0.5c0-0.1,0-0.1,0-0.2c0-0.3-0.1-0.5-0.1-0.7
			c-0.1-0.1-0.1-0.3-0.2-0.4c0,0,0-0.1-0.1-0.2c-0.5-0.6-1.4-0.6-2.2-0.6c-0.5,0-1.1,0-1.6-0.2l-0.2,0.3c-0.3,0.4-0.5,0.9-0.4,1.2
			C385.3,200.4,385.4,200.4,385.4,200.5z"/>
	</g>
	<g>
		<path class="st0" d="M426.9,170.8c0.9,0.4,1.5,0.5,1.9,0.5c0.4,0,0.6-0.2,0.8-0.4c0,0,0,0,0-0.1c0.2-0.4,0.3-1.1,0.4-2.1
			c-0.5-0.4-1.1-0.7-1.7-0.7c-0.6,0-1.2,0.2-1.7,0.6c-0.6,0.5-0.3,1.1,0.1,1.7C426.7,170.5,426.8,170.6,426.9,170.8z"/>
	</g>
	<g>
		<path class="st0" d="M356.6,128.7c-0.2,0.3-0.5,0.5-0.8,0.8c-0.7,0.6-1.5,1.2-1.2,2.4c0,0.5,0.3,0.7,0.6,1
			c0.2,0.2,0.4,0.3,0.5,0.6c0.1,0,0.1,0,0.2,0c0.1,0,0.1,0,0.2,0c0.4,0.8,0.1,1.6-0.2,2.4c-0.3,0.8-0.6,1.6-0.3,2.4
			c0,0.2,0,0.4,0,0.6c0,0.7-0.1,1.5,0.5,2.2c0,0.4,0,0.7,0.4,0.9c0.5,1.1,1.1,1.8,2.3,1.8c0.4,0,0.9-0.1,1.5-0.3
			c0.3-0.1,0.6-0.2,0.8-0.3c1-0.4,2.1-0.8,3.3-0.8c0.3,0,0.6,0,0.8,0.1c0.1,0.1,0.1,0.3,0.2,0.4c0.2,0.3,0.3,0.6,0.3,0.7
			c-0.9,2.5,0.3,4.3,1.6,5.8c0.4,0.4,0.4,1,0.4,1.5c0,0.3,0,0.5,0.1,0.8c0.6,2.6-0.2,5.1-1,7.5c-0.6,1.7-1.1,3.5-1.2,5.4
			c0,0,0,0,0,0.1c0,0.3,0,0.6,0,0.9c0,0.2-0.4,0.6-0.6,0.8c-1.6,1.5-1.6,3.4-1.4,4.9c0.1,1.5,0.8,2.4,2.1,2.8
			c0.2,0.1,0.5,0.3,0.7,0.4c0.6,0.3,1.1,0.6,1.5,1.3c0.4,0.7,1.1,1.1,1.9,1.1c0.9,0,1.9-0.6,2.5-1.5c0.9,0,1.7-0.2,2.6-0.4
			c0.9-0.2,1.9-0.4,2.8-0.4c1.2,0,2.2,0.3,3.1,1c0.1,0.1,0.3,0.2,0.5,0.2c0.4,0,0.7-0.3,0.9-0.7c0.2-0.6-0.2-0.8-0.6-1.1l-0.2-0.1
			c0.2-0.5-0.1-0.8-0.4-1.1c-0.1-0.1-0.2-0.3-0.3-0.4c0-1.2-0.3-2.4-0.6-3.5c-0.4-1.7-0.9-3.5-0.2-5.3c0,0,0,0,0,0
			c0.1-0.3,0.2-0.5,0.3-0.8c0.9-1.8,1.9-3.8,0.5-5.9l0-0.5c0-0.8,0-1.6-0.4-2.3c0.1-0.8,0.1-1.7,0.1-2.6c0-1.8,0.1-3.6,0.9-5.3
			c0.2-0.3,0.2-0.6,0.1-1c0,0,0-0.1,0-0.1c0,0,0,0,0,0c0,0,0,0,0,0l-0.1,0l0-5.2c0.2-0.1,0.3-0.3,0.4-0.6c0-0.1,0-0.3,0-0.4
			c0-0.4,0-0.8-0.5-0.8c0,0,0,0,0,0c0.1-0.6-0.2-1-0.5-1.4c-0.6-0.8-0.8-1.5-0.7-2.1c0.1-0.7,0.6-1.2,1.4-1.8
			c0.5-0.3,0.9-0.7,1.2-1.1c0.1-0.1,0.2-0.3,0.3-0.4c0,0,0,0,0,0c0.4-0.3,0.8-0.5,1.3-0.7c0.4-0.1,0.7-0.3,1-0.5c0.2,0,0.5,0,0.7,0
			l1.2,0c0.9,0,1.9,0.1,2.7,0.7l0.1,3.4c0.3,1-0.3,1.8-0.9,2.5c-0.6,0.7-1.1,1.5-1.2,2.6c-0.6,1.1-0.8,2-0.7,2.8c0,0.1,0,0.1,0,0.2
			c0,0.3,0.1,0.6,0.3,0.8c0,0.1,0.1,0.1,0.1,0.2c0.1,0.1,0.1,0.3,0.2,0.4c2.6,2.9,5.5,5.3,8.5,7.1c0.2,0.3,0.5,0.4,0.8,0.4
			c0.2,0,0.3,0,0.4,0.1c0.4,0.1,0.6,0.3,0.7,0.6c0.1,0.3-0.1,0.6-0.4,0.9c-0.6,0.7-0.6,1.4-0.5,2.2c-1.2,1.5-1.4,3.1-0.7,4.9
			c0,0.2,0.1,0.3,0.2,0.5c1.5,2.7,4.1,3.1,6.4,3.2c0.5,0.3,0.9,0.4,1.3,0.4c1,0,1.8-0.6,2.5-1.2c0.4-0.7,0.1-1.4-0.3-1.9
			c-0.1,0-0.2-0.1-0.4-0.2c-0.1-0.5-0.2-1-0.1-1.4c0.2-0.2,0.3-0.4,0.4-0.6c0-0.1,0.1-0.2,0.1-0.2c0.2-0.1,0.4-0.1,0.6-0.1
			c0.3,0,0.6-0.1,0.9-0.3l0,0c0,0,0,0,0,0c0,0,0,0,0,0l0.2,0.1c0.2,0,0.5,0,0.7-0.1c0.4-0.1,0.9-0.3,1.4-0.5c0.1,0,0.2-0.1,0.2-0.1
			c0,0,0,0,0,0c0,0,0,0,0.1,0c0.2,0.1,0.3,0.1,0.5,0.1c0.2,0,0.5-0.1,0.7-0.2c0.3,0.4,0.7,0.7,1.1,0.9c0.3,0.1,0.5,0.3,0.8,0.4
			c0.1,0.1,0.3,0.1,0.4,0.2c0.1,0,0.2,0.1,0.3,0.1c-0.1,0-0.3,0-0.4,0c-1.2,0-2.3,0.8-3.2,1.6c-0.3,0.2-0.5,0.4-0.8,0.6
			c-0.2,0.1-0.3,0.1-0.5,0.2c-0.1,0.1-0.2,0.2-0.3,0.3l-0.5,0.5l-0.5,0.5c0.7,1.4,0.8,2.8,0.4,4.4c-0.2,0.4-0.5,0.7-0.9,1
			c-0.5,2.7-0.1,3.4,2.5,3.9c0.1,0,0.3,0,0.5,0.1c0.5,0.1,1.1,0.1,1.3,0.7l0.1,0.4c0.1,0.3,0.2,0.6,0.3,0.8c0,0.2,0.1,0.3,0.2,0.5
			c0,0.1,0,0.2,0.1,0.2c0.1,0.2,0.2,0.5,0.3,0.7c0.1,0.1,0.2,0.2,0.3,0.3c0.1,0.1,0.3,0.2,0.4,0.3c0.1,0.1,0.3,0.2,0.4,0.2
			c0.2,0.1,0.5,0.2,0.8,0.2c0.1,0,0.2,0,0.2,0c0.1,0,0.2,0.1,0.4,0.1l0.2,0c1.8-0.1,2.7-1,2.9-3c0-0.4,0.2-0.8,0.3-1.2
			c0.1-0.2,0.1-0.4,0.1-0.5l0.3,0l0.2-0.1c0.2,0.1,0.4,0.1,0.6,0.1c0.6,0,1.1-0.4,1.5-0.8c0.9-0.3,2.4-0.7,2.1-2.2
			c-0.2-0.8-0.6-1.4-1.2-1.7c0,0,0,0,0,0c-0.3-0.2-0.7-0.3-1.1-0.3c-0.1,0-0.2,0-0.3,0c-1.2-0.6-1.4-1.5-0.6-2.8
			c0.1-0.1,0.1-0.3,0.2-0.4c0.2-0.5,0.4-0.9,0.9-0.9c0.2,0,0.5,0.1,0.9,0.3c0.1,0.1,0.3,0.1,0.4,0.1c0.1,0,0.2-0.1,0.3-0.1
			c0,0,0,0,0,0c0.2-0.1,0.4-0.2,0.5-0.5c0-0.1,0-0.2,0.1-0.2c0,0,0-0.1,0-0.1c0-0.2,0-0.4,0-0.5c0-0.1,0-0.1,0-0.1
			c0-0.1,0-0.2-0.1-0.2c-0.5-0.7-0.7-1.6-0.9-2.5c-0.4-1.8-0.8-3.6-3.6-3.7c-0.1,0-0.1,0-0.2-0.1c0,0-0.1,0-0.1,0
			c-0.2-0.1-0.2-0.4-0.2-0.7c0-0.3-0.1-0.5-0.2-0.7c0.2-0.2,0.4-0.3,0.5-0.3c0.2,0,0.3,0.1,0.4,0.4c0.8,0.6,1.4,0.9,2,0.9
			c0.6,0,1.2-0.3,1.8-1c0.5-1.1,0.7-2,0.6-2.8c-0.1-0.8-0.3-1.8-0.9-1.8c-0.1,0-0.1,0-0.2,0c-0.5,0.2-1,0.2-1.6,0.2
			c-0.8,0-1.6,0.1-2.2,0.7c0,0-0.1,0.1-0.1,0.1c-0.1,0.1-0.2,0.2-0.3,0.4l-1.6-0.3c-0.1-0.1-0.3-0.2-0.4-0.2c-0.3,0-0.6,0.2-0.8,0.3
			c-0.2,0.1-0.4,0.2-0.5,0.2c-0.1,0-0.2,0-0.2-0.2c-0.1-0.2-0.2-0.4-0.3-0.6c0,0,0,0,0-0.1c-0.6-1.2-1.6-2.2-2.6-3.1
			c-1.7-1.5-3.4-3-3-5.8c0.3-0.3,0.7-0.5,1.1-0.7c0.6-0.3,1.2-0.7,1.6-1.3c0,0,0,0,0,0c0.1-0.2,0.2-0.3,0.2-0.5c0,0,0-0.1,0-0.1
			c0.1-0.2,0.1-0.4,0.1-0.6c0.1-0.8-0.4-1-1-1.2l-1.5-1.1c0-0.2,0-0.4,0-0.6c0,0,0-0.1,0-0.1c-0.1-1.1-0.8-1.9-1.5-2.7
			c-0.2-0.3-0.5-0.5-0.7-0.8c-0.2-0.1-0.4-0.3-0.6-0.5c0,0-0.1-0.1-0.1-0.1c-0.6-0.6-1-1.3-1.5-2c-0.4-0.6-0.7-1.1-1.1-1.6l-3.1-4.3
			c-0.2-0.1-0.3-0.3-0.5-0.4c-0.3-0.2-0.7-0.5-1-0.9c-0.1-0.2-0.2-0.3-0.3-0.5c1.5-0.4,2.2-1.5,2.9-2.6c0.4-0.7,0.9-1.4,1.5-1.9
			l0.5-0.1c0.1,0,0.3,0,0.4,0c1.1,0,2.1-0.3,2.8-1c0.2-0.2,0.4-0.4,0.6-0.6c0,0,0.1-0.1,0.1-0.1c0.7-0.6,1.4-1,2.1-1.5
			c0.6-0.4,1.3-0.8,1.9-1.3c0.9,0,1.3-0.7,1.6-1.4c0-0.2,0-0.3,0-0.5c0.9-0.8,1.9-1.8,2.2-3.2c0.5-0.4,0.9-0.8,1.1-1.3
			c0.1,0,0.2,0,0.3,0c0.5-0.2,1-0.4,1.5-0.6c0.3-0.1,0.6-0.2,0.9-0.3l0.5-0.1l0.5,0.2c0.7,0.2,1.3,0.4,1.9,1c0.5,0.5,1,0.8,1.7,0.8
			c0.1,0,0.2-0.1,0.3-0.1c0.1,0,0.2,0,0.2,0c0.2-0.1,0.4-0.1,0.7-0.3c0.1-0.1,0.2-0.1,0.4-0.2c0.1-0.1,0.2-0.1,0.3-0.2
			c0-0.6,0.2-1.1,0.4-1.6c0.3-0.7,0.5-1.4,0.3-2.1c0.3-1.9-0.3-2.9-2.3-3.7c-0.8-0.3-1.6-0.5-2.5-0.5c-1.4,0-2.8,0.4-4.1,0.8
			c-0.9,0.3-1.9,0.6-2.9,0.7l-1.3,1.5c-0.1,0-0.2,0-0.3,0.1l-1.5,0c-0.8,0-1.6,0-2.5,0c-0.4,0-0.8,0-1.3,0l-0.5,0
			c-0.3,0-0.6,0-0.9,0.3c-0.2,0.2-0.2,0.5-0.2,0.8l0,0.3l0,0.2c-1.3,1-2.5,1.5-3.7,1.5c-1.3,0-2.5-0.7-3.8-2l-0.5-0.1
			c-0.2-0.1-0.5-0.2-0.7-0.2c-0.4,0-0.7,0.3-0.8,0.8l-0.8,0.5l-0.6,0.1c-1.5,0.6-2.3,1.8-2.3,3.4c0,0.2,0,0.3,0.1,0.5
			c-0.2,0.3-0.5,0.5-0.8,0.7c-0.7,0.6-1.4,1.1-1.5,2.1c-0.1,0.1-0.3,0.3-0.4,0.5c-0.1,0.2-0.1,0.3-0.1,0.5c-0.4,0.1-0.8,0.1-1.1,0.1
			c-0.4,0-0.9-0.1-1.3-0.1c-0.1-0.2-0.2-0.4-0.4-0.5c-0.1,0-0.2-0.1-0.4-0.1c0,0,0,0-0.1,0l-0.4-0.1c-1.3-0.4-2.5-0.8-2.8-2.3
			c-0.1-0.3-0.3-0.5-0.5-0.7c-0.3-0.4-0.6-0.8-0.6-1.4c-0.1-0.2-0.2-0.3-0.2-0.5c0-0.2,0-0.4-0.2-0.6c-0.1-0.1-0.2-0.1-0.3-0.1
			c-0.1,0-0.1,0-0.2,0l0.1-0.1c0.1-0.4,0-0.8-0.2-1.2c-0.5-0.5-1.1-0.7-1.8-0.9c-1-0.3-2-0.6-2.4-1.9c-1.4-4.7-2.2-10.2,2.2-15
			c1-1.2,2.2-1.3,3.1-1.3c0.5,0,1,0,1.5,0.1c0.4,0,0.8,0.1,1.4,0.1c0.2,0,0.3,0,0.5-0.1c0,0,0.1,0,0.2,0c0,0,0.1-0.1,0.1-0.1
			c0.4,0.8,1.1,1,1.7,1c0.2,0,0.3,0,0.5,0c0.1-0.1,0.3-0.2,0.4-0.2c0.3,0.3,0.6,0.4,1,0.4c0.5,0,0.9-0.3,1.3-0.6
			c0.3-0.2,0.6-0.5,1-0.6c0-0.1,0-0.2,0.2-0.3c0.3,0.1,0.6,0.2,0.9,0.3c0.7,0.3,1.4,0.5,2.2,0.5c0.2,0,0.3,0,0.4-0.1c0,0,0,0,0,0
			c0.4-0.1,0.8-0.2,1.1-0.5l0.6,0.1c0.4,0.1,0.7,0.1,1.1,0.1c0.3,0,0.5,0,0.8,0c0.2,0,0.5-0.1,0.6-0.2c0.7,0.4,1.2,0.5,1.8,0.5
			c0.4,0,0.7-0.1,1-0.2c0.1,0,0.1,0.1,0.2,0.1c0.1,0,0.2,0.1,0.2,0.1c0.1,0,0.1,0.1,0.2,0.1c0.3,0.1,0.6,0.1,1,0.1
			c0.5,0,1.1-0.1,1.6-0.2l0.5-0.1c0.3-0.2,0.5-0.4,0.7-0.5l4.9-0.4l3.7-0.1c0.1,0.1,0.2,0.2,0.3,0.3c0.4,0.1,0.7,0.1,1.1,0.1
			c0.2,0,1.1,0,1.3,0c0.5,0,1,0,1.6,0.2c0.5,0.2,0.9,0.6,1.2,1c0.5,0.6,1,1.2,1.9,1.2c0.2,0,0.4,0,0.6-0.1l0.5,0
			c0.8,0,1.6,0.1,2.5,0.1c0.9,0.1,1.8,0.1,2.7,0.1c2,0,3.5-0.2,4.9-0.8c0.3,0,0.6-0.1,0.9-0.1l0.6,0c0.5,0,1.2,0,1.7-0.3
			c0.2,0,0.3,0,0.5,0c0.2,0,0.4-0.1,0.5-0.1c0.1,0,0.1,0,0.2,0c0.2,0,0.3-0.1,0.5-0.2c0,0,0.1-0.1,0.1-0.1c0.1-0.1,0.3-0.1,0.4-0.3
			c2.2-0.7,3.2-2.6,4.2-4.2l0.2-0.4c0.5-1,1.1-1.9,2.1-2.5c2.9-1.5,4-4.3,5-7l0.3-0.8c1-0.2,1.6-0.6,1.8-1.1c0.3-0.7,0-1.5-0.4-2.3
			c-0.1-0.3-0.3-0.6-0.4-0.9c-0.3-0.2-0.5-0.3-0.7-0.5c-0.8-0.6-1.6-1.2-2.6-1.2c-0.3,0-0.6,0.1-1,0.2l-0.6,0.8
			c-0.4,0.4-0.7,0.9-1.1,1.3c-0.9,1.2-1.9,2.5-3.8,2.6c-0.3,0-0.6,0.4-0.8,0.7c-0.6,1.2-1.6,1.9-2.5,2.7c-0.4,0.3-0.8,0.6-1.1,0.9
			c-2,1.9-4,3-6,3.4c-0.1,0-0.1,0-0.2,0c-0.6,0.1-1.3,0.2-2,0.2c0,0,0,0,0,0c-0.5,0-0.9,0-1.4-0.1c0,0-0.1,0-0.1,0
			c-1.5-0.2-3.1-0.8-4.9-1.6c-0.5-0.4-1-0.6-1.6-0.6c-0.4,0-0.8,0.1-1.3,0.2c-0.3,0.2-0.5,0.4-0.6,0.6l-3,1.4l-5.3-1.1
			c-0.6-0.6-1.3-0.7-1.9-0.7c-0.3,0-0.6,0-0.9,0.1l-0.2,0c-0.3-0.2-0.6-0.3-0.9-0.3c-0.4-0.1-0.8-0.1-1.1-0.5l0-0.1l0.1-0.1l0,0.1
			l0-0.1l-0.1,0.2l-0.4,0l-0.4,0c0-0.1,0-0.2-0.1-0.3c-1-0.7-2.1-1.1-3.1-1.3c-0.5,0-1,0.1-1.5,0.2c-0.7,0.1-1.4,0.2-2.1,0.2
			c-1.2,0-2.1-0.3-2.9-0.9c-0.2-0.2-0.5-0.4-0.7-0.7c0,0,0,0,0,0c0,0,0,0,0,0l-0.2,0c0-0.1,0-0.2-0.1-0.3l-1.1,0l-1,0
			c-0.1-0.1-0.2-0.1-0.3-0.1c-0.1,0-0.1,0-0.2,0.1c-1.3-0.9-2.8-1-4.2-1l-1.1,0c-0.4,0-0.7,0-1.1,0c-0.7,0.2-0.8,0.7-0.9,1.2
			c0,0.2-0.1,0.4-0.1,0.5c0,0-0.2,1.9-0.2,1.9l-0.4,0.6l-1.1,1c-0.1,0-0.1,0-0.2,0c-0.6,0-0.8,0.5-1,0.9c-0.4,0.9-1,1.8-1.9,1.8
			c-0.1,0-0.2,0-0.3,0c-0.9-0.2-0.8-1-0.8-1.7c0-0.3,0-0.5,0-0.8c-0.5-0.4-0.9-0.6-1.4-0.6c-0.4,0-0.8,0.1-1.3,0.4
			c0,0.1-0.1,0.1-0.2,0.1c0,0-0.1,0-0.1,0c-0.8,0.3-0.8,1-0.7,1.7l0.2,0.4l-0.4,0.3c-0.7,0.4-1.3,0.9-1.8,1.5
			c-0.3,0.1-0.5,0.3-0.6,0.6c0,0.1-0.1,0.2-0.1,0.3c0.2,0.8-0.3,1.3-0.8,1.8c-0.3,0.3-0.7,0.7-0.8,1.2c-0.2,0.3-0.4,0.6-0.6,0.8
			c-1,1.4-2,2.8-1.1,4.3c0.1,0.2,0.2,0.3,0.3,0.5c0.1,0.1,0.1,0.2,0.2,0.2c0.2,0.2,0.4,0.4,0.7,0.6c-0.2,0.1-0.3,0.2-0.5,0.2
			c-0.2,0-0.5-0.1-0.8-0.1c-0.3-0.1-0.5-0.1-0.8-0.1c-0.5,0-0.9,0.3-1.2,0.8c-0.5,1-0.1,1.7,0.3,2.3c0.1,0.2,0.3,0.5,0.4,0.7
			c0.5,3.1,0.8,6-1.9,8.3c-0.2,0.2-0.3,0.5-0.4,0.8c-0.1,0.3-0.1,0.6-0.4,0.8l0,1.1l-1.1,2.1c-2.7,2.7-3.4,6.8-1.7,10.2l0,1.1
			l0.1,1.3c-2.6,1.5-2.6,4.1-2.7,6.4c-0.2,0.2-0.2,0.4-0.2,0.6c-0.6,1.7-2.2,2.5-3.6,3.2C356.9,128.7,356.8,128.7,356.6,128.7z
			 M416,105c0,0-0.1,0-0.1,0c-0.1,0-0.2-0.1-0.3-0.2C415.6,104.9,415.8,104.9,416,105C415.9,105,416,105,416,105z M425,101.4
			c0.1-0.1,0.1-0.2,0.2-0.3l0.1,0.1c0,0.1-0.1,0.1-0.2,0.2C425.1,101.3,425,101.4,425,101.4z"/>
	</g>
	<g>
		<path class="st0" d="M521.5,109c0.4,0,0.7,0.1,1.1,0.1c0.8,0,1.4-0.1,2-0.5l0.2-0.1c0,0,0.1,0,0.1,0c0,0,0,0,0,0l0,0l-0.3-0.3
			c-0.3-1.2-1.1-1.4-1.9-1.4c-0.2,0-0.4,0-0.6,0c-0.2,0-0.4,0-0.7,0c0,0,0,0,0,0c-0.7,0-1.1,0.4-1.1,1.2
			C520.2,108.8,520.9,108.9,521.5,109z"/>
	</g>
	<g>
		<path class="st0" d="M384.7,198.6c0.2,0,0.5,0,0.8-0.1l1-1.2c0.1-0.7,0-1.2-0.3-1.5c-0.2-0.3-0.6-0.4-1.2-0.4c0,0,0,0,0,0
			c-0.5,0-0.9,0.2-1.2,0.4c0,0,0,0-0.1,0c-0.1,0-0.2,0.1-0.2,0.1c-0.2,0.3-0.3,0.6-0.3,1C383.3,198,383.8,198.6,384.7,198.6z"/>
	</g>
	<g>
		<path class="st0" d="M454.5,50.3c0,0.1,0.1,0.1,0.2,0.1c0,0,0,0,0,0c0.2,0.1,0.4,0.2,0.7,0.2c0,0,0.2,0,0.2,0
			c1.3-0.1,1.5-1.1,1.6-2.1c0-0.9-0.5-1.3-1.5-1.3c-0.5,0.1-0.8,0.2-0.9,0.4c-0.2,0.3-0.1,0.7-0.1,1c0.1,0.3,0.1,0.7,0,1
			C454.4,49.9,454.4,50.1,454.5,50.3z"/>
	</g>
	<g>
		<path class="st0" d="M523.5,208.6c-0.2-0.5-0.4-1-1-1.1c-0.6-0.7-1.3-0.9-2.1-1c-0.2,0-0.4,0-0.6,0c-0.6,0-1,0.1-1.2,0.4
			c-0.4,0.4-0.3,1.2-0.3,1.9c0,0.3,0,0.6,0,0.8c0.4,1.7,1,2.5,1.8,2.5c0.5,0,1.1-0.3,1.9-0.9l0.2,0c0.3,0,0.7-0.1,0.7-0.6l0.6-0.5
			c0.5-0.4,0.3-0.8,0.1-1.1C523.6,208.9,523.6,208.7,523.5,208.6z"/>
	</g>
	<g>
		<path class="st0" d="M486.8,202.7c-0.2,0-0.3,0-0.5-0.1c-0.2,0-0.4-0.1-0.6-0.1c-0.5,0-0.8,0.2-1,0.7c0.3,0.4,0,0.8-0.2,1.1
			c-0.2,0.3-0.4,0.6-0.3,0.9c0,0.2,0.2,0.3,0.4,0.5c0.3,0.2,0.7,0.3,1.1,0.3c0.4,0,0.7-0.1,0.9-0.2c0.9-0.5,0.7-1.3,0.5-2
			C487,203.4,486.9,203,486.8,202.7z"/>
	</g>
	<g>
		<path class="st0" d="M289.5,195.5c-0.2,0-0.5,0.1-0.8,0.3c-0.7,0.4-1.1,0.9-1.2,1.4c-0.1,0.4,0.1,0.9,0.6,1.4
			c0.2,0.1,0.3,0.1,0.5,0.1c0.1,0,0.1,0,0.2,0c0.1,0,0.3,0.1,0.5,0.1c0.5,0,0.9-0.2,1.2-0.6c0.1-0.1,0.1-0.2,0.2-0.3
			c0,0,0-0.1,0-0.1c0.1-0.2,0.1-0.4,0.2-0.7c0,0,0,0,0-0.1c0,0,0,0,0-0.1C290.4,196.1,290.1,195.5,289.5,195.5z"/>
	</g>
	<g>
		<path class="st0" d="M206,47.1c0.1,0,0.2,0,0.2,0c1-0.2,1.4-1,1.7-1.8c-0.3-0.6-0.7-1.3-1.2-1.3c-0.1,0-0.2,0-0.2,0
			c-0.8,0.2-1.6,0.9-1.7,1.9c0,0.3,0.1,0.6,0.3,0.8C205.3,46.9,205.7,47.1,206,47.1z"/>
	</g>
	<g>
		<path class="st0" d="M379.5,186.2c-0.1,0.3,0.1,0.7,0.6,1.2c0.2,0.1,0.3,0.3,0.5,0.5c0.3,0.3,0.6,0.7,1,0.7c0.2,0,0.4-0.1,0.7-0.3
			l0.2-2.5c1.4-2.7,1.4-3.6-0.7-9.4c-1.5,0.5-1.8,1.7-1.8,2.9c-0.1,2.4,0.1,4.4,0.6,6.3C379.9,185.7,379.5,185.9,379.5,186.2z"/>
	</g>
	<g>
		<path class="st0" d="M536.8,148.7c0.4,0,0.7,0,0.9-0.2c0.3-0.3,0.3-1,0.2-2.7c0.8-0.9,1.1-1.7,0.8-2.5c-0.3-0.7-0.9-1.3-1.5-1.9
			l-0.4-0.4c-0.2-0.2-0.4-0.4-0.6-0.6c-0.6-0.5-1.1-0.9-1.4-1.7c-1.5-3.9-3.4-5.2-7.5-5.2h-0.3c-1.5,0-2.9,0-4.4-0.6l-2.1-0.6
			c-0.3-0.5-0.7-0.5-1.2-0.6c-0.4-0.1-0.7-0.1-1-0.4c0-0.2,0-0.4,0-0.6c-0.5-0.2-1.1-0.5-1.7-0.5c-0.6,0-1.1,0.3-1.6,0.9l-1.1,1.4
			c-0.2,0.1-0.5,0.3-0.7,0.4c-0.3,0.2-0.6,0.5-0.9,0.5c-0.2,0-0.3-0.1-0.5-0.2c-1.7-1.5-3.5-1.7-5.1-1.7c-0.5,0-1.1,0-1.6,0
			c-0.5,0-1.1,0-1.6,0c-0.3,0-0.7,0-1,0c-0.6,0-1.2-0.1-1.8-0.1c-2.3,0-4.8,0.4-6.2,3.6c-0.1,0.3-0.4,0.4-0.8,0.6
			c-0.2,0.1-0.3,0.2-0.4,0.3l-4.8,1.6c-1.2,0.2-2,0.4-2.2,0.8c-0.2,0.4,0.1,1,0.6,1.9c0.3,0,0.7,0.2,1.1,0.4
			c0.4,0.2,0.8,0.4,1.2,0.4c0.6,0,1-0.5,1.1-1.7c0-0.1,0.5-0.1,1.3-0.1c0.3,0,0.5,0,0.7,0c0.7,0.1,0.6,0.5,0.6,1c0,0.1,0,0.3,0,0.4
			c0,0.5,0,1.1,0,1.7c0,1.1-0.1,2.2,0.4,3.3c-0.1,0.4-0.1,1,0.2,1.3c0.1,0.1,0.3,0.2,0.5,0.2c0.2,0,0.4,0,0.6-0.1
			c0.4-0.2,0.7-0.2,1.1-0.2c0.3,0,0.7,0.1,1.1,0.2c0.1,0,0.2,0,0.3,0c1.1,0,2-0.5,2.9-0.9c0.7-0.3,1.4-0.7,2.1-0.9
			c0.2-0.1,0.4-0.2,0.5-0.3l0.3,0.1c0,0,0.6-0.1,0.8-0.1c0.1,0,0.2,0,0.3,0c0.2,0,0.3,0,0.5,0c0.2,0,0.3,0,0.5,0
			c0.5,0,1.1-0.1,1.3-0.9c0.3-1-0.1-1.9-1.2-2.7c-0.1,0-0.1-0.3-0.1-0.4c0-0.1,0-0.2,0-0.2l1.9-0.8l1.8-0.8l0.5,0.6
			c0,0.6,0,1.1,0.7,1.3c0.5,0.1,1,0.2,1.5,0.3c1.3,0.3,2.6,0.6,3.9,0.8c0.3,0,0.5,0.1,0.8,0.1c1.1,0,2-0.4,2.8-1.2
			c0.6-0.6,1.3-0.9,2-0.9c0.9,0,1.8,0.5,2.5,1.4c1.4,1.7,3.1,2.6,5.2,2.6l0.3,0l7.5,4.5C536.3,148.7,536.8,148.7,536.8,148.7z"/>
	</g>
	<g>
		<path class="st0" d="M39.7,71.4c-1.4-0.5-2-1.3-2.8-2.5c-0.5-0.9-1.1-1.5-1.8-1.8c0,0,0,0,0,0c-0.4-0.2-0.9-0.4-1.4-0.4
			c-0.8,0-1.6,0.3-2.5,0.9c-0.5,0.3-1,0.6-1.6,0.6c-0.1,0-0.3,0-0.3,0c-0.3,0.5-0.3,1-0.2,1.4c0.2,0.5,0.6,0.8,1.4,1.2
			c0.2,0.2,0.4,0.4,0.5,0.6c0,0,0.1,0.1,0.1,0.1c0.5,0.7,1,1.5,1.4,2.3c0.4,0.8,0.9,1.7,1.5,2.4c1,1.1,1.8,2.5,2.5,4.2
			c0.4,1.1,1.2,1.6,2.3,1.6c0.3,0,0.6,0,1-0.1c1.5-0.3,2.2-1.2,2-2.6l0-0.2c-0.1-0.7-0.1-1.4,0.2-2.1C42.8,74.4,41.9,72.1,39.7,71.4
			z"/>
	</g>
	<g>
		<path class="st0" d="M20.3,51.7l-0.6-0.6c-0.1-0.2-0.2-0.3-0.3-0.4c-0.1-0.1-0.2-0.2-0.2-0.3c-0.3-0.3-0.6-0.6-1-0.9c0,0,0,0,0,0
			c-0.9-0.6-1.8-1-2.8-1.4L15,47.9c-0.3-0.2-0.6-0.3-0.9-0.5c-0.9-0.5-1.8-0.9-2-2.1c-0.6-0.7-1.1-1-1.7-1c-0.8,0-1.6,0.7-2.3,1.3
			c-0.7,0.7-1.1,1.5-1.1,2.2c0,0.7,0.5,1.4,1.3,2c0.8,1,1.9,1.4,3.2,1.7c1.2,0.4,2.4,0.8,3.5,1.5c0,0,0,0,0.1,0
			c0.4,0.2,0.8,0.5,1.1,0.9c0.1,0.1,0.2,0.2,0.2,0.2c0.2,0.2,0.3,0.3,0.4,0.5c0.6,0.7,1.3,1.1,2,1.1c0,0,0,0,0,0
			c0.3,0,0.6-0.1,0.9-0.2c1-0.4,0.9-1.3,0.9-2.2c0-0.2,0-0.5,0-0.7c0-0.4-0.1-0.7-0.3-1.1L20.3,51.7z"/>
	</g>
	<g>
		<path class="st0" d="M80,137.5c0.1-0.1,0.2-0.1,0.3-0.2c0.9-1,0.5-1.9,0-2.6l-0.3-0.5c-0.5-0.9-1-1.8-2-2.2l-0.9-1.7
			c-0.3-0.2-0.3-0.6-0.3-0.9c0-0.4,0-0.7-0.3-1c-0.2-0.1-0.5-0.3-0.7-0.5c-0.3-0.2-0.5-0.4-0.8-0.5c-0.2-0.1-0.3-0.2-0.5-0.3
			c-0.5-0.3-1.1-0.7-1.6-0.7c-0.4,0-0.7,0.1-1,0.4c-1.2,1-0.7,2.4,0,3.5c0.4,1.8,1.3,3,2.9,4c1.3,0.8,1.9,2.2,2.5,3.6
			c0.2,0.4,0.4,0.8,0.6,1.2c0.3,0.6,0.7,0.9,1.3,0.9c0.2,0,0.4,0,0.7-0.1c0.4-0.1,0.6-0.3,0.6-0.5c0.1-0.3-0.3-0.6-0.6-0.9
			c-0.2-0.2-0.3-0.4-0.3-0.6C79.6,137.8,79.8,137.6,80,137.5z"/>
	</g>
	<g>
		<path class="st0" d="M71.5,124.7c-0.1-0.2-0.3-0.5-0.2-0.7c-0.2-0.3-0.4-0.6-0.5-0.9c-0.4-0.7-0.8-1.4-1.3-1.9
			c-0.7-0.8-1.6-1.2-2.4-1.2c-0.3,0-0.7,0.1-1,0.2c-1,0.5-0.8,1.4-0.6,2.2c0.1,0.2,0.1,0.5,0.1,0.7c0.1,0.7,0.6,0.9,1.1,1
			c0.3,0.1,0.6,0.2,0.9,0.4c0,0,0,0,0.1,0c0,0,0,0,0,0c0,0,0,0,0,0c0.5,0,0.8,0.3,1.1,0.6c0.2,0.2,0.4,0.4,0.7,0.5
			c0.2,0.1,0.3,0.1,0.4,0.2c0.3,0.2,0.5,0.3,0.8,0.3c0.2,0,0.4-0.1,0.6-0.3C71.9,125.5,71.7,125.1,71.5,124.7z"/>
	</g>
	<g>
		<path class="st0" d="M106,169.1l-0.3,0c0,0-0.1,0.1-0.2,0.1c-0.1,0-0.2,0-0.3,0c-0.1,0-0.3-0.1-0.4-0.1c-0.3,0-0.5,0.2-0.6,0.6
			c-0.2,0.7,0.3,1.1,0.8,1.4c0.1,0.1,0.2,0.1,0.3,0.2c0.2,0.2,0.5,0.4,0.7,0.6c0.5,0.3,0.9,0.7,1.3,1c0.1,0.1,0.2,0.2,0.3,0.3
			c0.3,0.3,0.6,0.6,1,0.6c0.3,0,0.5-0.1,0.8-0.4c0.9-0.9,0.9-2,0-2.9C108.8,169.5,107.6,169.1,106,169.1z"/>
	</g>
	<g>
		<path class="st0" d="M50.1,87.3c0.3,1,0.9,1.5,2.1,1.5h0.3c0.8,0,1.7,0,2.5,0l1.3,0c0,0,0,0,0,0c0.2-2.2-1.2-2.3-2.5-2.5
			c-0.4,0-0.9-0.1-1.3-0.2l-1.6,0.1C50.6,86.5,50.2,86.8,50.1,87.3z"/>
	</g>
	<g>
		<path class="st0" d="M32.1,59.6L32.1,59.6c0.9-0.2,1-0.9,1.1-1.5c0-0.1,0.1-0.3,0.1-0.4c-0.1-1.6-0.9-2.4-2.3-2.4l-0.4,0l-0.6,0
			c-0.5,0-1,0.1-1,1c0,0.3,0.7,1.3,1.5,2.1C30.9,58.7,31.8,59.6,32.1,59.6z"/>
	</g>
	<g>
		<path class="st0" d="M62.7,113.4l-1.1-1.2l-0.4-0.4l0-0.6l-1.3-2.5c0.1-0.2,0-0.3,0-0.4c-0.1-0.1-0.2-0.1-0.4-0.1c0,0,0,0,0,0
			c-0.4-0.3-0.5-0.7-0.5-1.1c-0.1,0-0.1,0-0.2,0c-0.1,0-0.1,0-0.2,0c0,0,0,0,0,0c0.3-1.4-0.7-2.1-1.6-2.7c0.1-0.5-0.1-0.8-0.3-1.1
			c-0.1-0.1-0.2-0.3-0.3-0.4c-0.1,0-0.2,0-0.2,0c-0.5,0-0.9,0.3-1.2,0.6c-0.4,0.3-0.7,0.5-1.2,0.5c0,0,0,0,0,0c-1.3,0-2,0.7-2.2,2.1
			L51,107c-0.3,0.5-0.3,1.1,0.1,1.7l0.5,0.5c-0.1,0.9,0.5,1.3,1,1.8c0.2,0.1,0.3,0.3,0.5,0.4l0.4,0.9c-0.1,1,0.1,2.1,1.3,2.5
			l0.1,0.4l0.1,0.4l3.5,1.9c0.1,0.1,0.1,0.3,0.1,0.5c0.4,0.4,0.8,0.5,1.1,0.5c0.4,0,0.8-0.3,1.1-0.8l1.1-1c1.5-0.4,1.3-1.3,1.1-2.2
			C62.7,114.1,62.6,113.7,62.7,113.4z"/>
	</g>
	<g>
		<path class="st0" d="M51.6,64.3c-0.2-0.1-0.4-0.2-0.5-0.4l-0.3-0.1c-0.3-0.1-0.7-0.1-1-0.1c-0.3,0-0.6,0.1-0.8,0.2
			c-0.5,0.7-0.6,1.2-0.5,1.5c0,0,0.1,0.1,0.1,0.1c0,0,0,0,0,0c0.2,0.1,0.4,0.2,0.8,0.2c0.1,0,0.3,0,0.4,0c0.5,0,1-0.1,1.6-0.1l0.8,0
			C52.3,64.9,52,64.6,51.6,64.3z"/>
	</g>
	<g>
		<path class="st0" d="M51,98.5c0.4-0.4,0.9-0.9,0.5-1.6l0-0.3c0.1-1,0.1-2.1-0.4-3c0.1-1.7-0.9-2.9-1.7-3.7
			c-0.4-0.4-0.8-0.6-1.4-0.6c-0.4,0-0.9,0.1-1.4,0.4c-0.2,0.1-0.4,0.3-0.4,0.4c0,0.2,0.1,0.4,0.3,0.6c0.2,0.2,0.3,0.4,0.3,0.7
			c0,0,0,0,0,0.1l0,0c0,0,0,0,0,0c0.1,0,0.2,0,0.3,0c0.4,0,0.7,0.1,0.8,0.6c-0.1,0.3-0.1,0.5,0,0.8c0.1,0.3,0.1,0.6-0.1,0.9
			c-0.1,0.4-0.2,0.8-0.3,1.1c-0.3,0.8-0.5,1.7-0.2,2.6c0,0.5,0.1,0.8,0.2,1.1c0,0,0,0.1,0,0.1c0,0.1,0.1,0.2,0.1,0.2
			c0.2,0.2,0.5,0.3,0.8,0.3c0.2,0,0.5,0,0.7-0.1c0.2,0,0.5-0.1,0.7-0.1c0.2,0,0.4,0,0.6,0.1l0.5-0.1C51.2,98.8,51.2,98.6,51,98.5z"
			/>
	</g>
	<g>
		<path class="st0" d="M458.9,212.6c-1.2,0-1.9,0.7-2.2,1.9c-0.1,0.4,0,0.7,0.1,1c0,0,0,0,0,0c0,0.1,0,0.1,0.1,0.2
			c0.1,0.2,0.3,0.2,0.5,0.2c0,0,0.1,0,0.1,0c1.2-0.1,2.1-0.9,2.4-2c0-0.5-0.1-0.8-0.3-1.1C459.5,212.7,459.3,212.6,458.9,212.6
			C458.9,212.6,458.9,212.6,458.9,212.6z"/>
	</g>
	<g>
		<path class="st0" d="M403.5,165.5c-0.1,0-0.2-0.1-0.4-0.1c-0.5,0-0.8,0.3-1.1,0.6c-0.2,0.2-0.4,0.4-0.6,0.5l-0.1,0.9
			c-0.6,1-0.6,1.9,0.1,2.8l1.5,2.2c0.4,0.7,0.9,1.2,1.6,1.5c0,0,0,0,0,0c0,0,0,0,0,0c0,0,0,0,0,0c0-0.2,0.2-0.3,0.3-0.3
			c0.2-0.1,0.4-0.3,0.4-0.6c0-0.7,0-1.5,0.4-2.2c0.1-1,0.3-2-0.4-2.8C405.1,166.9,404.9,165.8,403.5,165.5z"/>
	</g>
	<g>
		<path class="st0" d="M324.4,220.9c0.6-0.5,0.6-1.2,0.5-2c0.2-0.1,0.3-0.2,0.4-0.4c0.5-0.8,0.7-1.6,0.5-2.2c-0.2-0.7-0.8-1.3-2-1.9
			c-1.4-0.7-2.6-1-3.8-1c-0.8,0-1.6,0.2-2.4,0.5c-1.3,0.3-2,1-2.3,2.1l-0.5,0.7l-0.1,0.3c0,0,0,0,0,0l0,0l0,0l0.2,0
			c-0.3,0.4-0.2,0.9-0.2,1.3l0,0.3c0,0.5-0.1,0.9-0.1,1.3c-0.5,1.3-1.8,1.9-3,2.3c0,0.7,0.2,1.4,1.1,1.7c0.8,0.9,1.9,1,2.9,1l0.8,0
			c1.7,0,3.4,0,5-0.1l1.9-0.1c0.2,0,0.3,0,0.5,0c0,0,0,0,0,0l0,0C323.2,223.5,323,222.1,324.4,220.9z"/>
	</g>
	<g>
		<path class="st0" d="M385.3,238.9l-1.4-1.1l-0.3-0.3c-0.5-0.5-1-1.1-1.8-1.3c-0.7-0.9-1.6-1.2-2.6-1.6l-0.6-0.2l-0.6-0.7
			c-1.4-1.7-3.1-3.7-4.8-3.7c-0.2,0-0.3,0-0.5,0.1c-1.7,0.4-3.6,0.5-5.3,0.5c-2.5,0.1-5.2,0.1-7.6,1.3c-1.4,0.9-2,1.6-2.1,2.4
			c-0.1,0.9,0.5,1.8,2,3.2c0.9,0.8,2,0.9,2.8,0.9c0.4,0,0.8,0,1.2-0.1c0.4,0,0.8-0.1,1.2-0.1c0.3,0,0.7,0,1,0.1c0.2,0,0.4,0,0.6,0
			l0.6,0c0.7,0,1.5,0.1,1.7,1.3c1.1,1.4,2.6,2.1,4.3,2.8c0,0.5,0.3,0.8,0.7,1c0.2,1.6,1.5,2,2.7,2.5c0.3,0.1,0.6,0.2,0.9,0.3l0.2,0
			l0.2,0.1c0.3,0.2,0.6,0.3,0.9,0.3c0.2,0,0.5-0.1,0.6-0.3c0.2,0.3,0.5,0.3,0.8,0.4c0,0,0,0,0,0c0,0,1.8-0.5,1.8-0.5
			c0.1-0.1,0.2-0.1,0.3-0.2c0.2-0.1,0.4-0.3,0.6-0.4c2.6-0.8,3.9-1.6,4.2-2.6c0-0.1,0-0.2,0-0.3c0,0,0-0.1,0-0.1
			C387.2,241.7,386.6,240.5,385.3,238.9z"/>
	</g>
	<g>
		<path class="st0" d="M403,246.9c-0.2,0-0.3,0-0.5,0c-0.1,0.1-0.2,0.2-0.3,0.3c-0.2,0.2-0.5,0.4-0.6,0.6c-0.2,0.4-0.7,0.6-1.2,0.8
			c-0.5,0.2-1,0.5-1.2,0.9c-0.1,0.3,0,0.6,0.2,0.9c0.3,0.5,0.8,0.8,1.5,0.8c0.5,0,1.1-0.1,1.6-0.2c0.2,0,0.5-0.1,0.7-0.1
			c0.1,0,0.1,0,0.3-0.1l0.6-0.3c0.7-0.3,1.5-0.6,1.4-1.7C404.9,247.5,404.1,246.9,403,246.9z"/>
	</g>
</g>
</svg>
